<svg width="114" height="114" viewBox="0 0 114 114" fill="none" xmlns="http://www.w3.org/2000/svg">
<g clip-path="url(#clip0)">
<path d="M107.098 80.3789V93.7383L60.7852 97.0781H57H53.4375L6.90234 93.7383V80.3789C6.90234 78.5353 8.39859 77.0391 10.2422 77.0391H43.6406C49.0979 77.0391 53.9518 79.6709 57 83.7299C60.0482 79.6709 64.9021 77.0391 70.3594 77.0391H103.758C105.601 77.0391 107.098 78.5353 107.098 80.3789Z" fill="#FFF7CC"/>
<path d="M107.098 80.3789V93.7383L60.7852 97.0781H57V83.7299C60.0482 79.6709 64.9021 77.0391 70.3594 77.0391H103.758C105.601 77.0391 107.098 78.5353 107.098 80.3789Z" fill="#FFE6B3"/>
<path d="M114 93.7383C114 95.5819 112.504 97.0781 110.66 97.0781H79.0897C72.2943 97.0781 66.9705 98.5855 63.2678 101.556C61.4977 102.976 59.2733 103.758 57 103.758C54.7267 103.758 52.5023 102.976 50.7322 101.556C47.0295 98.5855 41.7057 97.0781 34.9103 97.0781H3.33984C1.49625 97.0781 0 95.5819 0 93.7383C0 91.8947 1.49625 90.3984 3.33984 90.3984H34.9103C43.2643 90.3984 49.9952 92.4001 54.9115 96.3456C55.3279 96.6796 56.0292 97.0781 57 97.0781C57.9708 97.0781 58.6721 96.6796 59.0863 96.3456C64.0048 92.4001 70.7357 90.3984 79.0897 90.3984H110.66C112.504 90.3984 114 91.8947 114 93.7383Z" fill="#613D5C"/>
<path d="M114 93.7383C114 95.5819 112.504 97.0781 110.66 97.0781H79.0897C72.2943 97.0781 66.9705 98.5855 63.2678 101.556C61.4977 102.976 59.2733 103.758 57 103.758V97.0781C57.9708 97.0781 58.6721 96.6796 59.0863 96.3456C64.0048 92.4001 70.7357 90.3984 79.0897 90.3984H110.66C112.504 90.3984 114 91.8947 114 93.7383Z" fill="#4B2746"/>
<path d="M80.3789 34.5763V53.6602C80.3789 54.9248 79.6642 56.0827 78.5331 56.6482L63.7621 64.0315C62.1255 64.8509 60.6271 65.9062 59.3089 67.1665C58.6632 67.7832 57.8327 68.0927 57 68.0927C56.1673 68.0927 55.3368 67.7832 54.6911 67.1665C53.3729 65.9062 51.8745 64.8509 50.2379 64.0315L35.4669 56.6482C34.3358 56.0827 33.6211 54.9248 33.6211 53.6602V34.5763C33.6211 32.7305 35.1173 31.2365 36.9609 31.2365H77.0391C78.8827 31.2365 80.3789 32.7305 80.3789 34.5763Z" fill="#4B2746"/>
<path d="M80.3789 34.5763V53.6602C80.3789 54.9248 79.6642 56.0827 78.5331 56.6482L63.7621 64.0315C62.1255 64.8509 60.6271 65.9062 59.3089 67.1665C58.6632 67.7832 57.8327 68.0927 57 68.0927V31.2365H77.0391C78.8827 31.2365 80.3789 32.7305 80.3789 34.5763Z" fill="#351B33"/>
<path d="M90.3984 63.6797C88.554 63.6797 87.0586 62.1843 87.0586 60.3399V30.7584C87.0586 28.9139 88.554 27.4186 90.3984 27.4186C92.2429 27.4186 93.7383 28.9139 93.7383 30.7584V60.3399C93.7383 62.1843 92.2429 63.6797 90.3984 63.6797Z" fill="#FCF05A"/>
<path d="M104.675 23.7307L57.9173 10.3713C57.619 10.2867 57.3095 10.2422 57 10.2422C56.6905 10.2422 56.381 10.2867 56.0827 10.3713L9.32485 23.7307C6.10301 24.6503 6.10747 29.2348 9.32485 30.1521L56.0827 43.5115C56.3832 43.5983 56.6927 43.6406 57 43.6406C57.3117 43.6406 57.619 43.5983 57.9173 43.5115L104.675 30.1521C107.897 29.2325 107.893 24.648 104.675 23.7307Z" fill="#613D5C"/>
<path d="M104.675 30.1521L57.9173 43.5115C57.619 43.5983 57.3117 43.6406 57 43.6406V10.2422C57.3095 10.2422 57.619 10.2867 57.9173 10.3713L104.675 23.7307C107.893 24.648 107.897 29.2325 104.675 30.1521Z" fill="#4B2746"/>
</g>
<defs>
<clipPath id="clip0">
<rect width="114" height="114" fill="white"/>
</clipPath>
</defs>
</svg>
