<svg width="96" height="96" viewBox="0 0 96 96" fill="none" xmlns="http://www.w3.org/2000/svg">
<path d="M0 89.3794V82.7588V28.1382C0 23.5682 4.38662 19.8623 9.79593 19.8623H15.6735H25.4695H72.4898V69.5175V76.1382V82.7588" fill="#289F87"/>
<path d="M72.4898 79.4482H29.3878C23.9785 79.4482 19.5919 75.7423 19.5919 71.1724V19.8621H72.4898V79.4482Z" fill="#208673"/>
<path d="M0 89.3794H13.7143V82.7588V19.8621H9.79593C4.38662 19.8621 0 23.568 0 28.1379V89.3794Z" fill="#208673"/>
<path d="M72.4898 96H7.83665C3.50885 96 0 93.0357 0 89.3794C0 85.7232 3.50885 82.7588 7.83665 82.7588H72.4896V96H72.4898Z" fill="#B9B9B9"/>
<path d="M25.4695 69.5173V62.8967V8.27588C25.4695 3.70594 29.8561 0 35.2654 0H41.143H96V62.8965" fill="#F0C419"/>
<path d="M88.1642 6.62061H47.0212V26.4825H88.1642V6.62061Z" fill="#B47923"/>
<path d="M82.285 33.103H52.8981V36.4133H82.285V33.103Z" fill="#B47923"/>
<path d="M82.285 39.7236H52.8981V43.0339H82.285V39.7236Z" fill="#B47923"/>
<path d="M82.2873 54.6206H72.4909V57.9309H82.2873V54.6206Z" fill="#B47923"/>
<path d="M39.1837 0V62.8965V69.5171H25.4695V19.8621V8.27587C25.4695 3.70594 29.8561 0 35.2654 0H39.1837Z" fill="#D7B329"/>
<path d="M72.4898 76.138H33.3061C28.9783 76.138 25.4695 73.1736 25.4695 69.5174C25.4695 65.8611 28.9783 62.8967 33.3061 62.8967H96V76.1382H88.1634" fill="#DBDBDB"/>
<path d="M72.4898 69.5173H88.1633V89.3794L80.3265 82.7586L72.4898 89.3794V69.5173Z" fill="#DC4D41"/>
<path d="M88.1643 69.5176H72.491V74.4831H88.1643V69.5176Z" fill="#C7463B"/>
</svg>
