<svg width="118" height="118" viewBox="0 0 118 118" fill="none" xmlns="http://www.w3.org/2000/svg">
<g clip-path="url(#clip0)">
<path d="M82.6 34.822H110.134C114.478 34.822 118 38.344 118 42.6886V89.8891C118 94.2337 114.478 97.7557 110.134 97.7557H100.3C99.214 97.7557 98.3337 98.636 98.3337 99.7223V108.741C98.3337 110.493 96.2154 111.371 94.9762 110.132L83.1762 98.3314C82.8075 97.9627 82.3073 97.7554 81.7856 97.7554H43.2666C38.9222 97.7554 35.4002 94.2335 35.4002 89.8888V69.2429L82.6 34.822Z" fill="#0CAF93"/>
<path d="M74.7334 7.28857H7.86659C3.52196 7.28857 0 10.8105 0 15.1552V62.3556C0 66.7 3.52196 70.222 7.86635 70.222H17.6998C18.786 70.222 19.6664 71.1026 19.6664 72.1886V81.2074C19.6664 82.9596 21.7847 83.8371 23.0238 82.598L34.8238 70.7977C35.1925 70.429 35.6927 70.2217 36.2144 70.2217H74.7334C79.0778 70.2217 82.5998 66.6998 82.5998 62.3554V15.1552C82.6 10.8105 79.078 7.28857 74.7334 7.28857Z" fill="#FFF7CC"/>
<path d="M62.8645 82.6418C63.212 80.4977 61.7557 78.4778 59.6115 78.1302C57.4674 77.7826 55.4475 79.239 55.0999 81.3831C54.7523 83.5272 56.2087 85.5471 58.3528 85.8947C60.497 86.2423 62.5169 84.7859 62.8645 82.6418Z" fill="#FFF7CC"/>
<path d="M44.0702 61.2011C45.606 59.6652 45.606 57.1751 44.0702 55.6392C42.5343 54.1034 40.0442 54.1034 38.5083 55.6392C36.9724 57.1751 36.9724 59.6652 38.5083 61.2011C40.0442 62.7369 42.5343 62.7369 44.0702 61.2011Z" fill="#868EAF"/>
<path d="M41.3 46.6222C39.1276 46.6222 37.3666 44.8612 37.3666 42.6888V38.7553C37.3666 35.1527 39.4965 31.95 42.7925 30.5965C44.364 29.9512 45.3407 28.3725 45.2232 26.6681C45.0917 24.7604 43.4948 23.1632 41.5873 23.0317C40.4809 22.9569 39.4227 23.327 38.6173 24.0787C37.8108 24.8313 37.3666 25.853 37.3666 26.9553C37.3666 29.1278 35.6056 30.8888 33.4332 30.8888C31.2607 30.8888 29.4998 29.1278 29.4998 26.9553C29.4998 23.6967 30.8666 20.5522 33.2494 18.3278C35.6313 16.1048 38.8655 14.9578 42.1286 15.1838C47.9643 15.5865 52.6686 20.2908 53.0708 26.1267C53.4222 31.2176 50.4924 35.9385 45.7804 37.8736C45.453 38.0079 45.2327 38.3624 45.2327 38.7553V42.6888C45.2332 44.8612 43.4724 46.6222 41.3 46.6222Z" fill="#868EAF"/>
<path d="M98.2304 82.9707C98.7301 80.857 97.4216 78.7384 95.3079 78.2388C93.1942 77.7391 91.0757 79.0476 90.576 81.1613C90.0764 83.275 91.3848 85.3936 93.4986 85.8932C95.6123 86.3929 97.7308 85.0844 98.2304 82.9707Z" fill="#FFF7CC"/>
<path d="M80.5611 82.6433C80.9087 80.4991 79.4523 78.4792 77.3082 78.1316C75.1641 77.7841 73.1442 79.2405 72.7966 81.3846C72.449 83.5287 73.9054 85.5486 76.0495 85.8962C78.1936 86.2438 80.2136 84.7874 80.5611 82.6433Z" fill="#FFF7CC"/>
<path d="M29.1697 70.7984L19.6666 80.3015V81.2078C19.6666 82.96 21.7849 83.8375 23.024 82.5984L34.824 70.7982C35.193 70.4294 35.693 70.2222 36.2146 70.2222H30.5603C30.0387 70.2222 29.5385 70.4294 29.1697 70.7984Z" fill="#FFE6B3"/>
<path d="M74.7334 7.28857H69.0792C73.4238 7.28857 76.9458 10.8105 76.9458 15.1552V62.3556C76.9458 66.7003 73.4238 70.222 69.0794 70.222H74.7337C79.0783 70.222 82.6 66.7 82.6 62.3556V15.1552C82.6 10.8105 79.0781 7.28857 74.7334 7.28857Z" fill="#FFE6B3"/>
<path d="M92.6794 99.7222V107.835L94.9762 110.132C96.2151 111.37 98.3336 110.493 98.3336 108.741V99.7222C98.3336 98.636 99.2143 97.7556 100.3 97.7556H94.646C93.5597 97.7556 92.6794 98.636 92.6794 99.7222Z" fill="#006B59"/>
<path d="M110.133 34.822H104.479C108.824 34.822 112.346 38.344 112.346 42.6886V89.8891C112.346 94.2337 108.824 97.7554 104.479 97.7554H110.134C114.478 97.7554 118 94.2335 118 89.8891V42.6886C118 38.344 114.478 34.822 110.133 34.822Z" fill="#006B59"/>
</g>
<defs>
<clipPath id="clip0">
<rect width="118" height="118" fill="white"/>
</clipPath>
</defs>
</svg>
