<svg width="35" height="32" viewBox="0 0 35 32" fill="none" xmlns="http://www.w3.org/2000/svg">
<path d="M11.2597 30.8812C11.5429 31.1942 11.9197 31.3667 12.3216 31.3667C12.7468 31.3667 13.1508 31.1671 13.4307 30.8165C18.84 24.0461 26.6357 15.7461 28.6544 13.8163C29.5091 12.9991 34.4393 8.42346 34.4393 7.75094L29.8564 1.34435C29.8557 0.471533 29.2461 0 28.6724 0C28.4641 0 28.145 0.0598109 27.8213 0.343565C25.294 3.0641 19.8068 9.92507 13.7099 17.4003L11.8809 19.4872C10.9664 18.7474 7.61309 15.439 6.08887 14.092L0.700357 18.1345C0.303031 18.3773 0.0496441 18.7772 0.00652857 19.2327C-0.0365869 19.6875 0.135212 20.1326 0.480136 20.4533C1.89897 21.7747 9.08798 28.4811 11.2597 30.8812ZM5.47919 17.4003L10.0518 21.2601C10.3567 21.5043 12.1857 23.4342 12.1857 23.4342C12.1857 23.4342 14.0148 20.5853 14.6245 19.8501C20.1116 13.2334 25.294 6.61672 27.8645 3.05105L31.8098 8.02663C28.6544 10.7836 15.4737 25.0288 12.2885 28.9972C10.014 26.5901 4.80562 21.6954 2.43824 19.4872L5.47919 17.4003Z" fill="#A5E2A8"/>
</svg>
