<svg width="75" height="75" viewBox="0 0 75 75" fill="none" xmlns="http://www.w3.org/2000/svg">
<path d="M59.8904 40.0639V62.1708C59.8904 63.0671 59.8264 63.9633 59.7 64.8478C59.572 65.734 59.3833 66.61 59.1323 67.4709C58.7734 68.694 58.5039 69.939 58.3253 71.1975C58.145 72.4543 58.0541 73.7246 58.0541 75H32.0335V70.9971C32.0335 70.3501 31.8482 69.7335 31.5129 69.2096C31.181 68.6856 30.7009 68.2526 30.1163 67.978C29.5519 67.7118 28.8174 67.257 28.1317 66.8021C26.8564 65.9547 25.8388 64.7703 25.1885 63.3838L20.8183 54.0605C20.0703 52.4668 20.3247 50.5816 21.4686 49.2422L22.9596 47.4952C23.8255 46.4826 24.2164 45.1467 24.0378 43.8275C24.0159 43.6708 24.0041 43.5142 24.0041 43.3609C24.0041 41.5093 25.5086 39.9577 27.4157 39.9577C27.5858 39.9577 27.7543 39.9645 27.9211 39.9813C28.5579 40.0352 29.1661 40.1969 29.7254 40.4463V17.7969C29.7254 16.7186 30.1618 15.7449 30.8694 15.0373C31.5753 14.3331 32.5507 13.8967 33.6289 13.8967C35.782 13.8967 37.5291 15.6421 37.5291 17.7969V35.6162C37.5291 34.538 37.9654 33.5642 38.6713 32.8566C39.3789 32.1507 40.3527 31.7144 41.4309 31.7144C43.5857 31.7144 45.331 33.4614 45.331 35.6162V38.3067C45.331 37.2301 45.7674 36.2547 46.4733 35.5488C47.1792 34.8429 48.1563 34.4065 49.2329 34.4065C51.3876 34.4065 53.1347 36.1519 53.1347 38.3067V40.1397C53.1347 38.2831 54.6021 36.7163 56.4586 36.686C57.4139 36.6708 58.2781 37.0532 58.9015 37.6749C59.5114 38.2865 59.8904 39.1322 59.8904 40.0639Z" fill="#FCD09F"/>
<path d="M34.7235 0H32.5334V8.22937H34.7235V0Z" fill="#5A5A5A"/>
<path d="M40.0359 10.508L41.5845 12.0566L47.4035 6.23765L45.8549 4.68901L40.0359 10.508Z" fill="#5A5A5A"/>
<path d="M51.9592 17.4238H43.7299V19.614H51.9592V17.4238Z" fill="#5A5A5A"/>
<path d="M23.3388 17.2356H15.1096V19.4257H23.3388V17.2356Z" fill="#5A5A5A"/>
<path d="M19.798 6.10436L25.617 11.9233L27.1657 10.3747L21.3467 4.55571L19.798 6.10436Z" fill="#5A5A5A"/>
<path d="M29.7254 40.4464V52.6455C29.2267 52.6455 28.7752 52.4433 28.4501 52.1182C28.1232 51.7914 27.9211 51.3398 27.9211 50.8412V39.9814C28.5579 40.0354 29.1661 40.1971 29.7254 40.4464Z" fill="#E2B991"/>
</svg>
