<svg width="75" height="75" viewBox="0 0 75 75" fill="none" xmlns="http://www.w3.org/2000/svg">
<path d="M55.94 54.9104C55.7755 54.1371 56.1529 53.3533 56.8584 52.9966C63.1009 49.8418 67.2297 44.3721 67.2297 38.1523C67.2297 30.4103 60.8326 23.8316 51.9242 21.4319C40.5166 21.9598 31.4744 29.3179 31.4744 38.3189C31.4744 47.6627 41.2179 55.2374 53.2371 55.2374C53.2666 55.2374 53.2962 55.2374 53.3256 55.2372C53.9184 55.2353 54.4692 55.5459 54.7655 56.0593C55.025 56.5089 55.2838 56.8837 55.6025 57.2738L56.3832 56.541C56.1858 55.8841 56.0202 55.2873 55.94 54.9104Z" fill="#FFF7CC"/>
<path d="M65.0829 52.5131C71.0521 49.4964 75 44.2663 75 38.3189C75 28.9751 65.2564 21.4004 53.2373 21.4004C51.6047 21.4004 50.0147 21.5412 48.4849 21.8062C58.2183 23.4917 65.4954 30.2442 65.4954 38.3189C65.4954 44.2663 61.5475 49.4964 55.5782 52.5131C54.9035 52.8541 54.5427 53.6037 54.7001 54.3431C54.9168 55.3624 55.2379 56.3529 55.6027 57.2738C58.7442 61.1631 64.5193 62.2266 66.9155 62.506C67.3449 62.5561 67.6396 62.0866 67.4061 61.7229C66.5156 60.3356 64.8703 57.4722 64.2047 54.343C64.0474 53.6037 64.4082 52.8541 65.0829 52.5131Z" fill="#F4EDC6"/>
<path d="M23.8387 12.7976C10.2965 14.5481 0 23.6927 0 34.7171C0 39.9511 2.32749 44.7626 6.22134 48.5602C6.6791 49.0066 6.85488 49.6705 6.68657 50.2875C5.47676 54.7254 2.85806 58.7363 1.28071 60.8783C1.80439 61.402 2.58384 61.5782 3.28125 61.3291C7.23911 59.9153 9.03076 58.4007 11.9704 55.271C12.7235 54.4693 13.9042 54.2438 14.9038 54.7025C15.5711 55.0088 16.2563 55.294 16.9572 55.5577C17.8138 55.88 18.7348 56.0353 19.6452 55.9411C19.8416 55.9207 20.0429 55.9329 20.2411 55.9799C21.4368 56.2635 22.5921 56.4749 23.8488 56.6353L29.2917 56.4595C40.7574 53.2894 48.9671 44.7806 48.9671 34.7793C48.9671 24.4663 40.2376 15.7397 28.2101 12.818L23.8387 12.7976Z" fill="#0CAF93"/>
<path d="M11.1287 54.428C7.91646 57.848 6.075 59.3396 1.28072 60.8781C1.07329 61.1597 0.883157 61.4105 0.717483 61.624C0.433596 61.9898 0.701809 62.5207 1.1647 62.5091C4.32862 62.4301 13.2045 61.7219 18.5788 56.438C19.0163 56.0078 19.6441 55.8379 20.2412 55.9795C20.2399 55.9771 20.2383 55.9746 20.237 55.9721C18.0551 55.4559 15.9841 54.7423 14.0578 53.8582C13.0597 53.4003 11.8806 53.6274 11.1287 54.428Z" fill="#0DA68C"/>
<path d="M28.5909 12.4902C26.9715 12.4902 25.3844 12.5966 23.8387 12.7976C37.3668 14.5573 47.6773 23.7004 47.6773 34.717C47.6773 45.7309 37.3719 54.8721 23.8489 56.6352C25.3917 56.8357 26.9748 56.944 28.5909 56.944C44.3814 56.944 57.1819 46.9927 57.1819 34.7172C57.1819 22.4417 44.3814 12.4902 28.5909 12.4902Z" fill="#0DA68C"/>
<path d="M10.9796 37.3824C12.5208 37.3824 13.7703 36.1329 13.7703 34.5917C13.7703 33.0505 12.5208 31.801 10.9796 31.801C9.43833 31.801 8.1889 33.0505 8.1889 34.5917C8.1889 36.1329 9.43833 37.3824 10.9796 37.3824Z" fill="#F0F7FF"/>
<path d="M22.1697 37.3824C23.7109 37.3824 24.9603 36.1329 24.9603 34.5917C24.9603 33.0505 23.7109 31.801 22.1697 31.801C20.6284 31.801 19.379 33.0505 19.379 34.5917C19.379 36.1329 20.6284 37.3824 22.1697 37.3824Z" fill="#F0F7FF"/>
<path d="M33.3598 37.3824C34.901 37.3824 36.1504 36.1329 36.1504 34.5917C36.1504 33.0505 34.901 31.801 33.3598 31.801C31.8185 31.801 30.5691 33.0505 30.5691 34.5917C30.5691 36.1329 31.8185 37.3824 33.3598 37.3824Z" fill="#F0F7FF"/>
<path d="M44.5497 37.3824C46.091 37.3824 47.3404 36.1329 47.3404 34.5917C47.3404 33.0505 46.091 31.801 44.5497 31.801C43.0085 31.801 41.759 33.0505 41.759 34.5917C41.759 36.1329 43.0085 37.3824 44.5497 37.3824Z" fill="#F0F7FF"/>
</svg>
