<svg width="68" height="80" viewBox="0 0 68 80" fill="none" xmlns="http://www.w3.org/2000/svg">
<g clip-path="url(#clip0)">
<path d="M54.0687 29.6468C54.0129 29.6534 53.9575 29.6626 53.9027 29.6744H18.7453C18.6992 29.6726 18.6531 29.6726 18.607 29.6744C18.3438 29.6922 18.0879 29.7686 17.8581 29.8979C17.6282 30.0272 17.4301 30.2062 17.2782 30.4219L6.64795 45.4813C6.41542 45.8111 6.30239 46.2103 6.32755 46.613C6.35271 47.0157 6.51455 47.3977 6.78632 47.6959L34.8568 78.3963C34.9952 78.644 35.1909 78.8549 35.4277 79.0111C35.6645 79.1674 35.9353 79.2646 36.2174 79.2944C36.4996 79.3243 36.7847 79.2859 37.049 79.1827C37.3132 79.0794 37.5488 78.9141 37.7359 78.7009L66.0831 47.6959C66.3549 47.3977 66.5167 47.0157 66.5419 46.613C66.5671 46.2103 66.454 45.8111 66.2215 45.4813L55.5913 30.4219C55.4234 30.1748 55.1958 29.9742 54.9296 29.8386C54.6634 29.7031 54.3672 29.6371 54.0687 29.6467V29.6468Z" fill="#1B9CFC" fill-opacity="0.427136"/>
<path d="M34.0138 0C33.0353 0 32.2421 0.793218 32.2421 1.7717V12.4019C32.2421 13.3804 33.0353 14.1736 34.0138 14.1736C34.9923 14.1736 35.7855 13.3804 35.7855 12.4019V1.7717C35.7855 0.793218 34.9923 0 34.0138 0ZM15.1618 3.21121C14.9334 3.23956 14.7092 3.33805 14.4974 3.46036C13.6499 3.94962 13.3713 5.02138 13.8607 5.86877L18.2899 13.5369C18.7792 14.3843 19.851 14.6906 20.6984 14.2013C21.5457 13.7121 21.8243 12.6126 21.3351 11.7652L16.9058 4.09706C16.5389 3.46152 15.8469 3.12619 15.1618 3.21121ZM52.4783 3.21121C51.9109 3.25134 51.3723 3.56744 51.0665 4.09706L46.6372 11.7652C46.1479 12.6126 46.4542 13.7121 47.3016 14.2013C48.149 14.6906 49.2208 14.3843 49.7101 13.5369L54.1393 5.86877C54.6287 5.02138 54.3501 3.94962 53.5026 3.46036C53.1848 3.2769 52.8187 3.18715 52.4783 3.21121ZM1.65259 16.8312C1.0852 16.8713 0.546512 17.1874 0.240716 17.717C-0.248629 18.5645 0.0300602 19.6362 0.877466 20.1254L8.54558 24.5547C9.39298 25.044 10.4925 24.7654 10.9817 23.918C11.471 23.0706 11.1646 21.9988 10.3173 21.5096L2.64917 17.0803C2.33133 16.8969 1.99293 16.8071 1.65259 16.8312ZM66.3474 16.8312C66.007 16.8071 65.6687 16.8969 65.3508 17.0803L57.6827 21.5096C56.8354 21.9988 56.529 23.0706 57.0183 23.918C57.5075 24.7654 58.607 25.044 59.4544 24.5547L67.1225 20.1254C67.9699 19.6362 68.2486 18.5645 67.7593 17.717C67.4535 17.1874 66.9147 16.8713 66.3474 16.8312ZM51.6478 24.7762C51.592 24.7827 51.5366 24.792 51.4818 24.8038H16.3244C16.2783 24.802 16.2322 24.802 16.1861 24.8038C15.9229 24.8216 15.667 24.898 15.4372 25.0273C15.2073 25.1566 15.0092 25.3356 14.8573 25.5512L4.22705 40.6107C3.99452 40.9404 3.88148 41.3397 3.90664 41.7424C3.93181 42.1451 4.09365 42.5271 4.36542 42.8253L32.4359 73.5257C32.5743 73.7734 32.77 73.9842 33.0068 74.1405C33.2436 74.2968 33.5144 74.394 33.7965 74.4238C34.0787 74.4537 34.3638 74.4153 34.6281 74.312C34.8923 74.2087 35.1279 74.0435 35.315 73.8302L63.6622 42.8253C63.934 42.5271 64.0958 42.1451 64.121 41.7424C64.1461 41.3397 64.0331 40.9404 63.8006 40.6107L53.1704 25.5512C53.0025 25.3042 52.7749 25.1036 52.5087 24.968C52.2425 24.8325 51.9463 24.7665 51.6478 24.7761V24.7762ZM18.7882 28.3473H30.2766L22.2486 38.0916L18.7882 28.3473ZM37.7511 28.3473H49.2394L45.779 38.0916L37.7511 28.3473ZM34.0138 29.3162L42.6785 39.8633H25.3491L34.0138 29.3162ZM15.7708 30.3681L19.1204 39.8633H9.0716L15.7708 30.3681ZM52.2569 30.3681L58.956 39.8633H48.9072L52.2569 30.3681ZM9.70826 43.4067H20.4215L28.7818 64.2797L9.70826 43.4067ZM24.2141 43.4067H43.8136L34.0138 67.8508L24.2141 43.4067ZM47.6062 43.4067H58.3194L39.2458 64.2797L47.6062 43.4067Z" fill="#222F3E"/>
</g>
<defs>
<clipPath id="clip0">
<rect width="68" height="79.3043" fill="white"/>
</clipPath>
</defs>
</svg>
