<svg width="120" height="120" viewBox="0 0 120 120" fill="none" xmlns="http://www.w3.org/2000/svg">
<g clip-path="url(#clip0)">
<path d="M97.2413 120H10.3448V8.27588H68.2758L97.2413 37.2414V120Z" fill="#FFE6B3"/>
<path d="M109.655 107.586H22.7586V0H80.6896L109.655 28.9655V107.586Z" fill="#FDBD40"/>
<path d="M80.6896 28.9655H109.655L80.6896 0V28.9655Z" fill="#F49E21"/>
<path d="M39.3103 91.0345H35.1724C34.0298 91.0345 33.1035 90.1082 33.1035 88.9656C33.1035 87.823 34.0298 86.8966 35.1724 86.8966H39.3103C40.4529 86.8966 41.3793 87.823 41.3793 88.9656C41.3793 90.1082 40.4529 91.0345 39.3103 91.0345Z" fill="#E9686A"/>
<path d="M97.2414 91.0345H47.5862C46.4437 91.0345 45.5173 90.1082 45.5173 88.9656C45.5173 87.823 46.4437 86.8966 47.5862 86.8966H97.2414C98.384 86.8966 99.3104 87.823 99.3104 88.9656C99.3104 90.1082 98.384 91.0345 97.2414 91.0345Z" fill="#E9686A"/>
<path d="M39.3103 78.6207H35.1724C34.0298 78.6207 33.1035 77.6943 33.1035 76.5518C33.1035 75.4092 34.0298 74.4828 35.1724 74.4828H39.3103C40.4529 74.4828 41.3793 75.4092 41.3793 76.5518C41.3793 77.6943 40.4529 78.6207 39.3103 78.6207Z" fill="#E9686A"/>
<path d="M97.2414 78.6207H47.5862C46.4437 78.6207 45.5173 77.6943 45.5173 76.5518C45.5173 75.4092 46.4437 74.4828 47.5862 74.4828H97.2414C98.384 74.4828 99.3104 75.4092 99.3104 76.5518C99.3104 77.6943 98.384 78.6207 97.2414 78.6207Z" fill="#E9686A"/>
<path d="M39.3103 66.2069H35.1724C34.0298 66.2069 33.1035 65.2805 33.1035 64.1379C33.1035 62.9953 34.0298 62.069 35.1724 62.069H39.3103C40.4529 62.069 41.3793 62.9953 41.3793 64.1379C41.3793 65.2805 40.4529 66.2069 39.3103 66.2069Z" fill="#E9686A"/>
<path d="M97.2414 66.2069H47.5862C46.4437 66.2069 45.5173 65.2805 45.5173 64.1379C45.5173 62.9953 46.4437 62.069 47.5862 62.069H97.2414C98.384 62.069 99.3104 62.9953 99.3104 64.1379C99.3104 65.2805 98.384 66.2069 97.2414 66.2069Z" fill="#E9686A"/>
<path d="M39.3103 53.7931H35.1724C34.0298 53.7931 33.1035 52.8667 33.1035 51.7241C33.1035 50.5815 34.0298 49.6552 35.1724 49.6552H39.3103C40.4529 49.6552 41.3793 50.5815 41.3793 51.7241C41.3793 52.8667 40.4529 53.7931 39.3103 53.7931Z" fill="#E9686A"/>
<path d="M97.2414 53.7931H47.5862C46.4437 53.7931 45.5173 52.8667 45.5173 51.7241C45.5173 50.5815 46.4437 49.6552 47.5862 49.6552H97.2414C98.384 49.6552 99.3104 50.5815 99.3104 51.7241C99.3104 52.8667 98.384 53.7931 97.2414 53.7931Z" fill="#E9686A"/>
<path d="M39.3103 41.3794H35.1724C34.0298 41.3794 33.1035 40.453 33.1035 39.3104C33.1035 38.1678 34.0298 37.2415 35.1724 37.2415H39.3103C40.4529 37.2415 41.3793 38.1678 41.3793 39.3104C41.3793 40.453 40.4529 41.3794 39.3103 41.3794Z" fill="#E9686A"/>
<path d="M97.2414 41.3794H47.5862C46.4437 41.3794 45.5173 40.453 45.5173 39.3104C45.5173 38.1678 46.4437 37.2415 47.5862 37.2415H97.2414C98.384 37.2415 99.3104 38.1678 99.3104 39.3104C99.3104 40.453 98.384 41.3794 97.2414 41.3794Z" fill="#E9686A"/>
<path d="M35.1724 18.6207H47.5862V31.0345H35.1724V18.6207Z" fill="#E9686A"/>
</g>
<defs>
<clipPath id="clip0">
<rect width="120" height="120" fill="white"/>
</clipPath>
</defs>
</svg>
