<svg width="150" height="150" viewBox="0 0 150 150" fill="none" xmlns="http://www.w3.org/2000/svg">
<path d="M135.938 14.0625H14.0625C10.1792 14.0625 7.03125 17.2105 7.03125 21.0938V105.469C7.03125 109.352 10.1792 112.5 14.0625 112.5H135.938C139.821 112.5 142.969 109.352 142.969 105.469V21.0938C142.969 17.2105 139.821 14.0625 135.938 14.0625Z" fill="#04957C"/>
<path d="M74.7267 32.0103C72.8619 32.0103 71.0735 32.751 69.7548 34.0697C68.4362 35.3883 67.6954 37.1767 67.6954 39.0415V43.729C67.6945 44.7182 67.9028 45.6965 68.3067 46.5995C68.7107 47.5025 69.3011 48.3098 70.0392 48.9685V57.7531H79.4142V48.9685C80.1523 48.3099 80.7428 47.5026 81.1467 46.5995C81.5507 45.6965 81.759 44.7183 81.7579 43.729V39.0415C81.7579 37.1767 81.0172 35.3883 79.6985 34.0697C78.3799 32.751 76.5915 32.0103 74.7267 32.0103Z" fill="#FDC9A6"/>
<path d="M67.6954 39.0031L67.6573 42.8117L71.8822 39.0031H81.7579L84.8259 35.9352C85.9258 34.8351 86.5921 33.3752 86.7024 31.8235C86.8127 30.2717 86.3595 28.7322 85.4262 27.4877C84.4349 26.1658 82.9751 25.2738 81.3466 24.9949C79.718 24.716 78.0445 25.0713 76.6699 25.988L74.7255 27.2844H69.9208C68.4964 27.2844 67.1303 27.8502 66.123 28.8573C65.245 29.7355 64.6983 30.8908 64.5759 32.1266C64.4535 33.3624 64.7631 34.6024 65.4518 35.6357L67.6954 39.0031Z" fill="#683B0D"/>
<path d="M105.469 60.9375L100.781 75L93.1547 63.5602C92.0168 61.8534 90.3798 60.5396 88.4672 59.7981L79.4145 56.2884L70.3125 56.25L58.1194 59.7337C56.7916 60.1131 55.5571 60.7644 54.4945 61.6464C53.4318 62.5284 52.5642 63.6216 51.9466 64.8568L45.4591 77.8318C44.8489 79.0522 44.5313 80.3979 44.5312 81.7623V82.2018C44.5315 84.1616 45.1869 86.0652 46.3931 87.6099C47.5994 89.1546 49.2873 90.2518 51.1887 90.7271L63.2812 93.75V100.781H86.7188V77.3438L93.1764 83.8014C95.0444 85.6693 97.5779 86.7187 100.22 86.7188H100.835C102.88 86.7187 104.875 86.0895 106.549 84.9165C108.224 83.7434 109.497 82.0834 110.196 80.1618L117.188 60.9375H105.469ZM63.2812 84.375L56.25 82.0312L63.2812 70.3125V84.375Z" fill="#53AAEC"/>
<path d="M107.812 39.8438V44.5312C107.812 45.7745 108.306 46.9667 109.185 47.8458C110.065 48.7249 111.257 49.2188 112.5 49.2188C113.743 49.2188 114.935 48.7249 115.815 47.8458C116.694 46.9667 117.188 45.7745 117.188 44.5312V39.8438H107.812Z" fill="#CBCBCB"/>
<path d="M63.2812 89.0625V70.3125L75 72.6562L86.7188 70.3125V89.0625L75 91.4062L63.2812 89.0625Z" fill="#FB636F"/>
<path d="M107.812 60.9375L105.469 53.9062L110.156 49.2188H114.844L117.188 53.9062L114.844 60.9375H107.812Z" fill="#FDC9A6"/>
<path d="M107.813 39.8438L105.064 35.7205C104.453 34.8045 104.041 33.771 103.853 32.6863C103.665 31.6017 103.706 30.4897 103.973 29.4217C104.4 27.7124 105.386 26.195 106.775 25.1108C108.164 24.0265 109.875 23.4375 111.637 23.4375H113.363C115.125 23.4375 116.836 24.0265 118.225 25.1109C119.614 26.1952 120.6 27.7126 121.027 29.422C121.294 30.49 121.335 31.6019 121.147 32.6866C120.959 33.7713 120.547 34.8048 119.936 35.7208L117.188 39.8438H107.813Z" fill="#FBB540"/>
<path d="M46.2891 128.906H103.711C104.799 128.906 105.842 129.338 106.611 130.108C107.38 130.877 107.812 131.92 107.812 133.008V138.281H42.1875V133.008C42.1875 131.92 42.6196 130.877 43.3888 130.108C44.158 129.338 45.2013 128.906 46.2891 128.906Z" fill="#CBCBCB"/>
<path d="M96.0938 112.5H84.375C84.375 114.986 83.3873 117.371 81.6291 119.129C79.871 120.887 77.4864 121.875 75 121.875C72.5136 121.875 70.129 120.887 68.3709 119.129C66.6127 117.371 65.625 114.986 65.625 112.5H53.9062L46.875 128.906H103.125L96.0938 112.5Z" fill="#A8A8A8"/>
<path d="M142.969 100.781H7.03125V105.469C7.03125 107.334 7.77204 109.122 9.09066 110.441C10.4093 111.759 12.1977 112.5 14.0625 112.5H135.938C137.802 112.5 139.591 111.759 140.909 110.441C142.228 109.122 142.969 107.334 142.969 105.469V100.781Z" fill="#CBCBCB"/>
<path d="M63.2812 84.375H72.6562V93.75H63.2812V84.375Z" fill="#FDC9A6"/>
<path d="M66.8789 117.188H51.8965L53.9063 112.5H65.625C65.6228 114.146 66.0553 115.763 66.8789 117.188Z" fill="#656666"/>
<path d="M98.1035 117.188H83.1211C83.9447 115.763 84.3772 114.146 84.375 112.5H96.0938L98.1035 117.188Z" fill="#656666"/>
</svg>
