<svg width="35" height="35" viewBox="0 0 35 35" fill="none" xmlns="http://www.w3.org/2000/svg">
<path d="M1.62609 30.2294C1.36366 30.2294 1.10123 30.1294 0.901075 29.9291C0.500626 29.5286 0.500626 28.8794 0.901075 28.479L12.6051 16.7749C13.0055 16.3745 13.6547 16.3745 14.0552 16.7749C14.4556 17.1753 14.4556 17.8246 14.0552 18.2251L2.35118 29.9291C2.15096 30.1294 1.88853 30.2294 1.62609 30.2294Z" fill="white"/>
<path d="M33.3739 30.2299C33.1115 30.2299 32.8491 30.1298 32.6489 29.9295L20.9449 18.2255C20.5445 17.8251 20.5445 17.1759 20.9449 16.7754C21.3453 16.375 21.9946 16.375 22.395 16.7754L34.099 28.4794C34.4995 28.8799 34.4995 29.5291 34.099 29.9295C33.8988 30.1298 33.6364 30.2299 33.3739 30.2299Z" fill="white"/>
<path d="M17.5684 22.6269C17.3074 22.6269 17.0463 22.5278 16.8464 22.3297L0.904199 6.5241C0.501972 6.12536 0.499238 5.47615 0.89791 5.07399C1.29665 4.67183 1.94586 4.66903 2.34802 5.06777L17.5652 20.1545L32.6489 5.07084C33.0492 4.6704 33.6985 4.6704 34.099 5.07084C34.4994 5.47129 34.4994 6.1205 34.099 6.52095L18.2934 22.3265C18.0933 22.5268 17.8308 22.6269 17.5684 22.6269Z" fill="white"/>
<path d="M31.9238 30.8301H3.07617C1.37997 30.8301 0 29.4501 0 27.7539V7.24609C0 5.54989 1.37997 4.16992 3.07617 4.16992H31.9238C33.62 4.16992 35 5.54989 35 7.24609V27.7539C35 29.4501 33.62 30.8301 31.9238 30.8301ZM3.07617 6.2207C2.51077 6.2207 2.05078 6.68069 2.05078 7.24609V27.7539C2.05078 28.3193 2.51077 28.7793 3.07617 28.7793H31.9238C32.4892 28.7793 32.9492 28.3193 32.9492 27.7539V7.24609C32.9492 6.68069 32.4892 6.2207 31.9238 6.2207H3.07617Z" fill="white"/>
</svg>
