<svg width="75" height="75" viewBox="0 0 75 75" fill="none" xmlns="http://www.w3.org/2000/svg">
<g clip-path="url(#clip0)">
<path d="M65.8219 42.8554C48.907 35.4984 31.9916 50.7703 15.0797 43.4133V10.8685C31.9922 18.2226 48.9064 2.95369 65.8219 10.3125C65.8215 21.1594 65.8215 32.007 65.8219 42.8554Z" fill="#D9E2E9"/>
<path d="M25.4426 46.0546C21.8014 46.1 18.1909 45.3835 14.843 43.9511C14.7384 43.9055 14.6495 43.8304 14.587 43.7349C14.5246 43.6395 14.4913 43.5279 14.4914 43.4138V10.8679C14.4913 10.7706 14.5155 10.6748 14.5618 10.5892C14.608 10.5036 14.6749 10.4308 14.7563 10.3775C14.8377 10.3242 14.9311 10.2919 15.0281 10.2838C15.125 10.2756 15.2225 10.2917 15.3117 10.3306C23.5916 13.9318 32.0947 11.9425 40.3166 10.0183C48.7248 8.05189 57.4219 6.01752 66.0551 9.77338C66.1596 9.819 66.2485 9.89414 66.311 9.98959C66.3734 10.085 66.4067 10.1966 66.4066 10.3107V42.8554C66.4067 42.9527 66.3825 43.0485 66.3362 43.1341C66.29 43.2198 66.2231 43.2925 66.1417 43.3459C66.0603 43.3992 65.9669 43.4314 65.87 43.4396C65.773 43.4477 65.6755 43.4316 65.5863 43.3927C57.307 39.7915 48.8039 41.7808 40.5814 43.705C35.6121 44.8675 30.5414 46.0546 25.4426 46.0546ZM15.6627 43.0253C23.8318 46.4203 32.2096 44.4597 40.3154 42.5636C48.4599 40.6587 56.8699 38.6906 65.2353 41.9777V10.698C57.0662 7.30248 48.6885 9.26303 40.5826 11.1597C32.4381 13.0646 24.0287 15.0328 15.6627 11.7456V43.0253Z" fill="#2F3A5A"/>
<path d="M25.3711 23.9478C21.8346 23.9818 18.3297 23.2798 15.0791 21.8865V10.8708C18.3299 12.2634 21.8348 12.9646 25.3711 12.9298V23.9478Z" fill="#707583"/>
<path d="M25.3711 24.5337C21.7546 24.5696 18.1704 23.8512 14.8471 22.4243C14.7425 22.3787 14.6536 22.3035 14.5911 22.2081C14.5287 22.1127 14.4954 22.0011 14.4955 21.887V10.8714C14.4955 10.7741 14.5196 10.6783 14.5659 10.5926C14.6121 10.507 14.679 10.4343 14.7604 10.3809C14.8418 10.3276 14.9352 10.2954 15.0322 10.2872C15.1291 10.279 15.2266 10.2951 15.3158 10.3341C18.4916 11.695 21.9161 12.3795 25.3711 12.3438C25.5265 12.3438 25.6755 12.4056 25.7854 12.5155C25.8953 12.6253 25.957 12.7744 25.957 12.9298V23.9454C25.957 24.1008 25.8953 24.2498 25.7854 24.3597C25.6755 24.4696 25.5265 24.5313 25.3711 24.5313V24.5337ZM15.6627 21.4985C18.5586 22.689 21.6543 23.3189 24.7851 23.3548V13.511C21.6641 13.4752 18.575 12.8778 15.6656 11.7474L15.6627 21.4985Z" fill="#2F3A5A"/>
<path d="M35.4223 33.5027C32.0447 34.272 28.5942 34.6767 25.1303 34.7097C25.1303 31.0378 25.1303 27.366 25.1303 23.6941C28.5942 23.6611 32.0447 23.2564 35.4223 22.4871C35.4223 26.1582 35.4223 29.83 35.4223 33.5027Z" fill="#707583"/>
<path d="M25.4525 35.2973H25.125C24.9706 35.2958 24.8231 35.2334 24.7145 35.1237C24.6058 35.0139 24.5449 34.8658 24.5449 34.7114V23.6958C24.5452 23.6183 24.5609 23.5416 24.5911 23.4701C24.6213 23.3987 24.6653 23.334 24.7207 23.2798C24.7746 23.2238 24.8396 23.1797 24.9115 23.1504C24.9835 23.1212 25.0608 23.1073 25.1385 23.1098C28.56 23.083 31.9684 22.6819 35.3027 21.9139C35.3878 21.8966 35.4757 21.8983 35.56 21.9191C35.6444 21.9399 35.723 21.9791 35.7903 22.034C35.8576 22.0889 35.9119 22.1581 35.9491 22.2365C35.9864 22.315 36.0058 22.4007 36.0059 22.4876V33.5032C36.0058 33.6382 35.959 33.769 35.8736 33.8735C35.7882 33.978 35.6694 34.0498 35.5371 34.0768C32.2269 34.8315 28.8472 35.2405 25.4525 35.2973ZM25.7168 24.2782V34.1219C28.785 34.0506 31.8391 33.6825 34.8363 33.0227V23.203C31.8378 23.8518 28.784 24.2118 25.7168 24.2782Z" fill="#2F3A5A"/>
<path d="M45.4758 42.0017C42.0457 42.7148 38.6133 43.6113 35.1844 44.315V33.2994C38.615 32.5962 42.0457 31.6986 45.4764 30.9861L45.4758 42.0017Z" fill="#707583"/>
<path d="M35.1844 44.9009C35.029 44.9009 34.8799 44.8391 34.7701 44.7292C34.6602 44.6194 34.5984 44.4703 34.5984 44.3149V33.2993C34.5985 33.1643 34.6452 33.0335 34.7307 32.929C34.8161 32.8245 34.9349 32.7527 35.0672 32.7257C36.8139 32.3671 38.5934 31.951 40.3143 31.5485C41.966 31.1618 43.674 30.7628 45.3574 30.413C45.4425 30.3956 45.5304 30.3974 45.6147 30.4181C45.6991 30.4389 45.7777 30.4781 45.845 30.533C45.9123 30.5879 45.9665 30.6571 46.0038 30.7356C46.0411 30.814 46.0605 30.8997 46.0605 30.9866V42.0022C46.0604 42.1372 46.0137 42.268 45.9283 42.3725C45.8429 42.477 45.724 42.5489 45.5918 42.5759C43.9225 42.9227 42.2221 43.3206 40.5773 43.705C38.8488 44.1093 37.0617 44.5253 35.2992 44.8891C35.2614 44.8968 35.2229 44.9007 35.1844 44.9009ZM35.7703 33.7733V43.5936C37.2891 43.2708 38.823 42.9122 40.3137 42.5636C41.8131 42.212 43.3605 41.8511 44.8904 41.5259V31.7067C43.4496 32.0161 41.9947 32.3559 40.5809 32.687C39.0047 33.0555 37.3828 33.4352 35.7703 33.7739V33.7733Z" fill="#2F3A5A"/>
<path d="M45.4758 20.4756C42.0451 21.1881 38.6145 22.0852 35.1838 22.7889V11.7732C38.6145 11.0701 42.0451 10.1725 45.4758 9.45996V20.4756Z" fill="#707583"/>
<path d="M35.1844 23.3747C35.029 23.3747 34.8799 23.313 34.7701 23.2031C34.6602 23.0932 34.5984 22.9442 34.5984 22.7888V11.7732C34.5985 11.6382 34.6452 11.5074 34.7307 11.4029C34.8161 11.2984 34.9349 11.2265 35.0672 11.1995C36.8139 10.8409 38.5934 10.4249 40.3143 10.0224C41.966 9.63567 43.674 9.23664 45.3574 8.88684C45.4425 8.86947 45.5304 8.87123 45.6147 8.892C45.6991 8.91277 45.7777 8.95202 45.845 9.00692C45.9123 9.06182 45.9665 9.131 46.0038 9.20944C46.0411 9.28788 46.0605 9.37362 46.0605 9.46047V20.4761C46.0604 20.6111 46.0137 20.7419 45.9283 20.8464C45.8429 20.9509 45.724 21.0227 45.5918 21.0497C43.9225 21.3966 42.2221 21.7945 40.5773 22.1788C38.8488 22.5831 37.0617 22.9991 35.2992 23.363C35.2614 23.3707 35.2229 23.3746 35.1844 23.3747ZM35.7703 12.2472V22.0675C37.2891 21.7446 38.823 21.3861 40.3137 21.0374C41.8131 20.6859 43.3605 20.3249 44.8904 19.9997V10.18C43.4496 10.4894 41.9947 10.8292 40.5809 11.1603C39.0047 11.5288 37.3828 11.9091 35.7703 12.246V12.2472Z" fill="#2F3A5A"/>
<path d="M55.7678 30.0316C52.3038 30.0647 48.8534 30.4693 45.4758 31.2387V20.2207C48.8534 19.4514 52.3038 19.0467 55.7678 19.0137C55.7678 22.6863 55.7678 26.359 55.7678 30.0316Z" fill="#707583"/>
<path d="M45.4758 31.8246C45.3204 31.8246 45.1713 31.7629 45.0614 31.653C44.9516 31.5431 44.8898 31.3941 44.8898 31.2387V20.2207C44.8899 20.0857 44.9366 19.9549 45.0221 19.8504C45.1075 19.7459 45.2263 19.6741 45.3586 19.6471C48.7758 18.8642 52.268 18.4553 55.7736 18.4277C55.928 18.4293 56.0755 18.4917 56.1842 18.6014C56.2928 18.7111 56.3537 18.8593 56.3537 19.0137V30.0293C56.3534 30.1068 56.3377 30.1835 56.3075 30.2549C56.2773 30.3263 56.2333 30.391 56.1779 30.4453C56.0654 30.5531 55.916 30.6139 55.7601 30.6152C52.3379 30.6448 48.9289 31.0454 45.593 31.81C45.5545 31.8188 45.5152 31.8237 45.4758 31.8246ZM46.0617 20.6988V30.5215C49.0604 29.8726 52.1144 29.5124 55.1818 29.4457V19.602C52.1135 19.6724 49.0592 20.0398 46.0617 20.6988Z" fill="#2F3A5A"/>
<path d="M65.8219 42.8555C62.5713 41.4621 59.0664 40.7601 55.5299 40.7941V29.7785C59.0664 29.7445 62.5713 30.4465 65.8219 31.8399C65.8215 35.5109 65.8215 39.1828 65.8219 42.8555Z" fill="#707583"/>
<path d="M65.8213 43.4414C65.7406 43.4415 65.6608 43.4249 65.5869 43.3927C62.4101 42.0301 58.9841 41.3446 55.5275 41.38C55.3721 41.38 55.2231 41.3183 55.1132 41.2084C55.0033 41.0985 54.9416 40.9495 54.9416 40.7941V29.7785C54.9416 29.7014 54.9568 29.6251 54.9864 29.5539C55.016 29.4827 55.0593 29.418 55.1139 29.3636C55.1646 29.3043 55.2286 29.2579 55.3007 29.2282C55.3728 29.1984 55.4509 29.1862 55.5287 29.1925C59.1452 29.1566 62.7294 29.8751 66.0527 31.3019C66.1573 31.3475 66.2462 31.4227 66.3087 31.5181C66.3711 31.6136 66.4043 31.7252 66.4043 31.8392V42.8549C66.4043 43.0103 66.3426 43.1593 66.2327 43.2692C66.1228 43.3791 65.9737 43.4408 65.8183 43.4408L65.8213 43.4414ZM56.1158 40.2146C59.2368 40.2507 62.3259 40.8481 65.2353 41.9783V32.2265C62.3403 31.0366 59.2457 30.4069 56.1158 30.3709V40.2146Z" fill="#2F3A5A"/>
<path d="M65.8219 21.3281C62.5713 19.9348 59.0664 19.2328 55.5299 19.2668V8.25118C59.0664 8.21715 62.5713 8.91912 65.8219 10.3125C65.8215 13.9844 65.8215 17.6563 65.8219 21.3281Z" fill="#707583"/>
<path d="M65.8213 21.9139C65.7406 21.914 65.6608 21.8975 65.5869 21.8653C62.4101 20.5027 58.9841 19.8172 55.5275 19.8526C55.3721 19.8526 55.2231 19.7909 55.1132 19.681C55.0033 19.5711 54.9416 19.4221 54.9416 19.2667V8.25104C54.9416 8.17396 54.9568 8.09764 54.9864 8.02645C55.016 7.95527 55.0593 7.89061 55.1139 7.83619C55.2295 7.73501 55.3753 7.67486 55.5287 7.6651C59.1452 7.62921 62.7294 8.34762 66.0527 9.77447C66.1573 9.8201 66.2462 9.89524 66.3087 9.99068C66.3711 10.0861 66.4043 10.1977 66.4043 10.3118V21.328C66.4043 21.4834 66.3426 21.6324 66.2327 21.7423C66.1228 21.8522 65.9737 21.9139 65.8183 21.9139H65.8213ZM56.1158 18.6877C59.2368 18.7238 62.3259 19.3212 65.2353 20.4514V10.6979C62.3403 9.50778 59.2457 8.87788 56.1158 8.84166V18.6877Z" fill="#2F3A5A"/>
<path d="M25.3711 45.4747C21.8346 45.5087 18.3297 44.8067 15.0791 43.4133V32.3977C18.3299 33.7901 21.8348 34.491 25.3711 34.4561V45.4747Z" fill="#707583"/>
<path d="M25.3711 46.0598C21.7546 46.0957 18.1704 45.3773 14.8471 43.9504C14.7425 43.9048 14.6536 43.8297 14.5911 43.7342C14.5287 43.6388 14.4954 43.5272 14.4955 43.4131V32.3975C14.4955 32.3002 14.5196 32.2044 14.5659 32.1188C14.6121 32.0331 14.679 31.9604 14.7604 31.9071C14.8418 31.8537 14.9352 31.8215 15.0322 31.8134C15.1291 31.8052 15.2266 31.8213 15.3158 31.8602C18.4916 33.2214 21.9161 33.906 25.3711 33.8705C25.5265 33.8705 25.6755 33.9323 25.7854 34.0422C25.8953 34.1521 25.957 34.3011 25.957 34.4565V45.4721C25.957 45.6275 25.8953 45.7766 25.7854 45.8864C25.6755 45.9963 25.5265 46.0581 25.3711 46.0581V46.0598ZM15.6627 43.0252C18.5586 44.2161 21.6542 44.8464 24.7851 44.8827V35.0389C21.6641 35.0031 18.575 34.4057 15.6656 33.2752L15.6627 43.0252Z" fill="#2F3A5A"/>
<path d="M16.8217 4.40863C16.8227 3.74122 16.6488 3.0852 16.3175 2.50584C15.9861 1.92648 15.5089 1.44401 14.9331 1.10643C14.3574 0.76885 13.7033 0.587942 13.0359 0.58171C12.3685 0.575477 11.7111 0.744138 11.1292 1.07091C10.5472 1.39767 10.061 1.87115 9.71891 2.44422C9.37681 3.01729 9.19076 3.66995 9.17928 4.33727C9.16779 5.00458 9.33127 5.66326 9.65345 6.24776C9.97563 6.83226 10.4453 7.32219 11.0156 7.66879V74.4141H14.9894V7.66879C15.549 7.32837 16.0115 6.84961 16.3324 6.27862C16.6533 5.70762 16.8218 5.06363 16.8217 4.40863Z" fill="#E8C79C"/>
<path d="M16.8234 4.40838C16.8235 5.06416 16.6542 5.70885 16.332 6.28001C16.0097 6.85116 15.5455 7.32945 14.9842 7.66854V74.4109H12.767V7.66854C13.3964 7.28485 13.9013 6.72727 14.2209 6.06304C14.5406 5.39881 14.6612 4.6563 14.5683 3.92505C14.4754 3.1938 14.1729 2.50505 13.6973 1.94185C13.2218 1.37865 12.5934 0.965063 11.8881 0.750958C12.2483 0.639927 12.6233 0.584214 13.0002 0.585723C14.014 0.585879 14.9863 0.988653 15.7032 1.70549C16.4202 2.42233 16.8231 3.39454 16.8234 4.40838Z" fill="#D0AA79"/>
<path d="M14.9865 74.9997H11.0156C10.8602 74.9997 10.7112 74.938 10.6013 74.8281C10.4914 74.7182 10.4297 74.5691 10.4297 74.4137V7.98249C9.67238 7.43811 9.1073 6.66752 8.81573 5.78161C8.52416 4.8957 8.52114 3.94013 8.8071 3.05239C9.09307 2.16465 9.65327 1.39051 10.4071 0.841358C11.161 0.292201 12.0696 -0.00366211 13.0022 -0.00366211C13.9349 -0.00366211 14.8435 0.292201 15.5974 0.841358C16.3512 1.39051 16.9114 2.16465 17.1974 3.05239C17.4833 3.94013 17.4803 4.8957 17.1888 5.78161C16.8972 6.66752 16.3321 7.43811 15.5748 7.98249V74.4137C15.5748 74.4909 15.5596 74.5673 15.53 74.6385C15.5004 74.7098 15.457 74.7745 15.4024 74.8289C15.3477 74.8833 15.2828 74.9265 15.2115 74.9558C15.1401 74.9851 15.0637 75 14.9865 74.9997ZM11.6016 73.8278H14.4029V7.66784C14.4029 7.56737 14.4287 7.46857 14.4778 7.38095C14.527 7.29332 14.5978 7.2198 14.6836 7.16745C15.2868 6.80066 15.7535 6.24666 16.0125 5.58993C16.2715 4.9332 16.3086 4.20978 16.1181 3.52999C15.9277 2.85021 15.5201 2.25137 14.9576 1.8248C14.3951 1.39823 13.7085 1.16734 13.0025 1.16734C12.2966 1.16734 11.61 1.39823 11.0475 1.8248C10.485 2.25137 10.0774 2.85021 9.88696 3.52999C9.6965 4.20978 9.7336 4.9332 9.9926 5.58993C10.2516 6.24666 10.7183 6.80066 11.3215 7.16745C11.4072 7.2198 11.4781 7.29332 11.5272 7.38095C11.5764 7.46857 11.6022 7.56737 11.6021 7.66784L11.6016 73.8278Z" fill="#2F3A5A"/>
</g>
<defs>
<clipPath id="clip0">
<rect width="75" height="75" fill="white"/>
</clipPath>
</defs>
</svg>
