<svg width="96" height="96" viewBox="0 0 96 96" fill="none" xmlns="http://www.w3.org/2000/svg">
<g clip-path="url(#clip0)">
<path d="M70.4 20.8H48H25.6L14.4 38.4L48 81.6L81.6 38.4L70.4 20.8Z" fill="#DF4D60"/>
<path d="M6.39998 49.6001H1.59998C0.716329 49.6001 -1.52588e-05 48.8838 -1.52588e-05 48.0001C-1.52588e-05 47.1165 0.716329 46.4001 1.59998 46.4001H6.39998C7.28364 46.4001 7.99998 47.1165 7.99998 48.0001C7.99998 48.8838 7.28364 49.6001 6.39998 49.6001Z" fill="#F0C419"/>
<path d="M94.4 49.6001H89.6C88.7164 49.6001 88 48.8838 88 48.0001C88 47.1165 88.7164 46.4001 89.6 46.4001H94.4C95.2837 46.4001 96 47.1165 96 48.0001C96 48.8838 95.2837 49.6001 94.4 49.6001Z" fill="#F0C419"/>
<path d="M48 96C47.1163 96 46.4 95.2837 46.4 94.4V89.6C46.4 88.7163 47.1163 88 48 88C48.8837 88 49.6 88.7163 49.6 89.6V94.4C49.6 95.2837 48.8837 96 48 96Z" fill="#F0C419"/>
<path d="M48 8C47.1163 8 46.4 7.28366 46.4 6.4V1.6C46.4 0.716344 47.1163 0 48 0C48.8837 0 49.6 0.716344 49.6 1.6V6.4C49.6 7.28366 48.8837 8 48 8Z" fill="#F0C419"/>
<path d="M15.1904 82.4097C14.5441 82.4089 13.9617 82.0194 13.7142 81.4223C13.4668 80.8252 13.6029 80.1379 14.0592 79.6801L17.4528 76.2865C18.0806 75.6802 19.0785 75.6889 19.6957 76.306C20.3129 76.9232 20.3216 77.9211 19.7152 78.5489L16.32 81.9409C16.0204 82.2406 15.6142 82.4092 15.1904 82.4097Z" fill="#F0C419"/>
<path d="M77.416 20.184C76.769 20.1839 76.1857 19.7941 75.9381 19.1963C75.6905 18.5985 75.8274 17.9104 76.2848 17.4528L79.68 14.0592C80.0778 13.627 80.6805 13.4475 81.25 13.5917C81.8195 13.7359 82.2641 14.1806 82.4083 14.75C82.5525 15.3195 82.373 15.9222 81.9408 16.32L78.5472 19.7136C78.2475 20.0143 77.8405 20.1835 77.416 20.184Z" fill="#F0C419"/>
<path d="M80.8096 82.4096C80.3853 82.4095 79.9784 82.2409 79.6784 81.9408L76.2848 78.5472C75.6784 77.9194 75.6871 76.9215 76.3043 76.3043C76.9215 75.6871 77.9194 75.6785 78.5472 76.2848L81.9408 79.68C82.3983 80.1376 82.5351 80.8257 82.2875 81.4235C82.0399 82.0213 81.4566 82.4111 80.8096 82.4112V82.4096Z" fill="#F0C419"/>
<path d="M18.584 20.184C18.1597 20.1839 17.7528 20.0153 17.4528 19.7152L14.0592 16.32C13.627 15.9222 13.4475 15.3195 13.5917 14.75C13.7359 14.1806 14.1805 13.7359 14.75 13.5917C15.3195 13.4475 15.9222 13.627 16.32 14.0592L19.7136 17.4528C20.1711 17.9104 20.3079 18.5985 20.0603 19.1963C19.8127 19.7941 19.2294 20.1839 18.5824 20.184H18.584Z" fill="#F0C419"/>
<path d="M36.8 38.4H14.4L25.6 20.8L36.8 38.4Z" fill="#FB7B76"/>
<path d="M81.6 38.4H59.2L70.4 20.8L81.6 38.4Z" fill="#FB7B76"/>
<path d="M70.4 20.8L59.2 38.4L48 20.8H70.4Z" fill="#FF5364"/>
<path d="M48 20.8L36.8 38.4L25.6 20.8H48Z" fill="#FF5364"/>
<path d="M59.2 38.4H36.8L48 20.8L59.2 38.4Z" fill="#FB7B76"/>
<path d="M59.2 38.3999L56.704 47.9999L54.624 56.0639L48 81.5999L36.8 38.3999H59.2Z" fill="#FF5364"/>
</g>
<defs>
<clipPath id="clip0">
<rect width="96" height="96" fill="white"/>
</clipPath>
</defs>
</svg>
