<svg width="1440" height="200" viewBox="0 0 1440 200" fill="none" xmlns="http://www.w3.org/2000/svg">
<path d="M0 -1.52588e-05V68.6813L1445 200V-1.52588e-05H0Z" fill="#53AAEC"/>
<g opacity="0.4">
<path d="M1508 84.9965V85.5054C1507.99 86.7832 1507.96 88.0552 1507.9 89.3215C1506.88 110.992 1498.28 131.421 1483.85 146.421C1469.41 161.421 1450.24 169.856 1430.27 169.998C1410.3 170.14 1391.03 161.978 1376.42 147.184C1361.81 132.391 1352.95 112.086 1351.68 90.4317C1351.57 88.6334 1351.52 86.8217 1351.52 84.9965C1351.49 67.3923 1356.52 50.2174 1365.91 35.8663C1366.66 34.7099 1367.44 33.5747 1368.25 32.4607C1368.81 31.6859 1369.38 30.9285 1369.96 30.1768C1383.17 13.1789 1401.98 2.48182 1422.37 0.380432C1442.75 -1.72095 1463.08 4.94081 1479 18.9365C1479.94 19.7633 1480.87 20.6191 1481.77 21.4921C1482.49 22.1918 1483.21 22.9068 1483.9 23.6373C1497.67 37.9429 1506.15 57.2256 1507.73 77.8499C1507.91 80.209 1508 82.5912 1508 84.9965Z" fill="#AFDAFB"/>
<path d="M1368.25 32.4607C1368.29 32.4782 1368.32 32.5016 1368.35 32.5301C1368.77 32.906 1368.25 33.6287 1368.31 34.2243C1368.39 34.9875 1369.32 35.1552 1370.03 35.2304C1370.74 35.3113 1371.63 35.93 1371.3 36.6123C1369.52 37.2772 1367.72 36.6238 1365.91 35.8664C1356.52 50.2174 1351.49 67.3924 1351.52 84.9965C1351.52 86.8237 1351.57 88.6354 1351.68 90.4317C1351.83 90.5496 1351.99 90.645 1352.16 90.715C1352.7 90.9347 1353.31 90.8942 1353.8 91.2065C1354.19 91.4551 1354.45 91.8945 1354.84 92.1258C1355.95 92.785 1357.5 91.5187 1358.53 92.3051C1358.8 92.5705 1359.06 92.8524 1359.3 93.1492C1360.25 94.0512 1361.83 93.4441 1362.94 94.1206C1363.65 94.5543 1364.02 95.4216 1364.4 96.208C1365.35 98.1739 1366.9 100.105 1368.93 100.261C1369.58 100.229 1370.22 100.252 1370.86 100.331C1371.49 100.487 1372.11 101.082 1372.01 101.77C1371.83 102.956 1372.37 104.251 1372.22 105.436C1371.96 107.604 1369.14 108.553 1368.9 110.721C1368.9 111.198 1368.87 111.675 1368.82 112.149C1368.69 112.716 1368.3 113.178 1368.16 113.745C1367.9 114.815 1368.6 115.884 1369.38 116.601C1370.15 117.324 1371.08 117.949 1371.5 118.955C1371.95 120.024 1371.73 121.267 1371.88 122.43C1372.2 124.968 1374.21 126.847 1376.29 128.061C1376.95 128.363 1377.55 128.831 1378.01 129.426C1378.55 130.264 1378.49 131.369 1378.67 132.369C1379.11 134.815 1381.01 136.833 1381.06 139.325C1381.1 141.1 1380.19 142.707 1379.65 144.378C1379.09 146.13 1378.92 148.001 1379.16 149.837C1382.2 152.633 1385.42 155.174 1388.81 157.44C1389 157.144 1389.13 156.815 1389.21 156.469C1389.28 156.085 1389.23 155.69 1389.09 155.335C1388.94 154.979 1388.69 154.681 1388.39 154.48C1388.96 154.245 1389.48 153.882 1389.92 153.416C1390.13 153.177 1390.27 152.872 1390.32 152.544C1390.37 152.215 1390.32 151.877 1390.19 151.577C1391.13 151.704 1392.24 151.768 1392.86 150.987C1393.35 150.363 1393.32 149.426 1393.12 148.634C1392.93 147.836 1392.6 147.067 1392.59 146.24C1394.76 146.355 1396.94 146.276 1399.1 146.003C1398.78 144.859 1398.07 143.893 1397.12 143.309C1398.1 143.129 1398.98 141.857 1399.29 140.834C1399.56 139.79 1399.58 138.688 1399.34 137.636C1399.26 137.366 1399.25 137.08 1399.3 136.804C1399.46 136.437 1399.74 136.147 1400.08 135.989C1401.7 134.977 1403.32 133.967 1404.94 132.959C1405.22 132.801 1405.49 132.591 1405.71 132.34C1406.22 131.687 1406.14 130.71 1405.88 129.906C1405.62 129.102 1405.21 128.345 1405.11 127.5C1404.81 124.974 1407.3 123.158 1408.14 120.776C1408.43 119.825 1408.58 118.833 1408.6 117.833C1408.67 116.757 1408.67 115.514 1407.92 114.826C1407.19 114.161 1406.05 114.312 1405.29 113.693C1404.59 113.126 1404.36 112.033 1403.59 111.577C1402.9 111.16 1402.04 111.426 1401.27 111.23C1399.92 110.889 1399.06 109.194 1397.68 109.038C1396.9 108.946 1396.02 109.362 1395.38 108.871C1394.82 108.431 1394.8 107.558 1394.69 106.818C1394.5 105.665 1393.99 104.603 1393.23 103.774C1392.47 102.945 1391.49 102.389 1390.43 102.181C1389.63 102.042 1388.75 102.094 1388.07 101.614C1387.38 101.128 1387.06 100.221 1386.51 99.5442C1385.64 98.463 1384.26 98.0756 1382.96 97.746C1381.21 97.3008 1379.45 96.8536 1377.7 96.4045C1376.77 96.1617 1375.57 96.0345 1375.06 96.9249C1374.91 97.2635 1374.81 97.6238 1374.75 97.9946C1374.56 98.6619 1374.18 99.247 1373.67 99.6664C1373.15 100.086 1372.53 100.318 1371.89 100.331C1371.45 99.5141 1370.73 98.9135 1369.9 98.6538C1369.35 98.554 1368.81 98.4149 1368.28 98.2375C1368 98.0901 1367.76 97.8828 1367.56 97.6284C1367.35 97.3741 1367.2 97.0779 1367.11 96.758C1367.02 96.4381 1366.99 96.1013 1367.02 95.7681C1367.05 95.4349 1367.15 95.1124 1367.3 94.8203C1367.6 94.2335 1367.72 93.5552 1367.63 92.8898C1367.54 92.2244 1367.26 91.6086 1366.82 91.1371C1365.92 90.264 1364.63 90.0501 1363.43 90.1368C1363.11 89.3909 1363.64 88.5525 1364.2 88.009C1364.77 87.4713 1365.46 86.9393 1365.58 86.1298C1365.78 84.8578 1364.28 83.8922 1363.15 84.268C1362.01 84.6496 1361.29 85.8465 1360.81 87.026C1360.58 87.722 1360.26 88.3812 1359.87 88.9862C1359.67 89.2854 1359.39 89.5184 1359.08 89.6592C1358.76 89.8 1358.42 89.8432 1358.08 89.7841C1357.14 89.5239 1356.79 88.3154 1356.58 87.2978C1356.25 85.9377 1356.08 84.5363 1356.08 83.1289C1356.09 81.7077 1356.61 80.3464 1357.53 79.3359C1359.08 77.7863 1361.46 77.9366 1363.55 78.1853C1363.33 77.8606 1363.22 77.4584 1363.25 77.0539C1363.28 76.6494 1363.44 76.2705 1363.71 75.9881C1363.99 75.7181 1364.33 75.5264 1364.69 75.4296C1365.06 75.3329 1365.44 75.3341 1365.8 75.433C1366.43 75.5749 1367 75.9436 1367.41 76.4796C1368.01 77.2659 1368.18 78.3356 1368.63 79.226C1369.08 80.1222 1370.09 80.8855 1370.91 80.4056C1371.63 79.9893 1371.74 78.9138 1371.57 78.0523C1371.39 77.1965 1371.01 76.3582 1371.07 75.4793C1371.2 73.8083 1372.8 72.7964 1374.21 72.1083C1375.62 71.4203 1377.23 70.4894 1377.46 68.8241C1377.47 68.5003 1377.52 68.1802 1377.63 67.8759C1377.78 67.6042 1378 67.3811 1378.26 67.2283C1382.37 64.2737 1386.56 61.2786 1391.27 59.6654C1391.51 59.5786 1391.54 59.6711 1391.79 59.6075C1392.14 59.3878 1391.91 58.7807 1391.57 58.5379C1391.24 58.295 1390.79 58.1042 1390.7 57.6763C1390.64 57.3641 1390.81 57.0519 1390.86 56.7339C1390.87 56.5418 1390.84 56.3497 1390.76 56.1743C1390.69 55.999 1390.58 55.8459 1390.44 55.7283C1390.3 55.6107 1390.13 55.5324 1389.96 55.5C1389.78 55.4677 1389.6 55.4823 1389.44 55.5428C1389.06 54.9992 1389.8 54.369 1390.41 54.184C1392.23 53.6433 1394.09 53.3138 1395.97 53.201C1396.19 53.1621 1396.41 53.2028 1396.61 53.3167C1396.74 53.4616 1396.83 53.6586 1396.83 53.8672C1396.84 54.0757 1396.78 54.2801 1396.65 54.4384C1396.4 54.7473 1396.11 55.0282 1395.81 55.2768C1395.5 55.599 1395.28 56.0061 1395.18 56.4537C1395.07 56.9013 1395.08 57.3722 1395.2 57.8151C1396.19 58.3586 1397.25 58.9195 1398.34 58.7287C1399.43 58.5379 1400.39 57.208 1399.88 56.1499C1399.41 55.1611 1397.97 54.9356 1397.73 53.8544C1397.44 52.5881 1399.09 51.4606 1398.72 50.2232C1398.56 49.6797 1398.06 49.3559 1397.68 48.9685C1397.22 48.4862 1396.92 47.8674 1396.8 47.1929C1396.67 46.5183 1396.74 45.8193 1396.99 45.1871C1396.37 45.3053 1395.73 45.26 1395.12 45.0548C1394.52 44.8496 1393.97 44.4905 1393.52 44.0075C1392.69 43.0997 1392.03 41.66 1390.85 41.7063C1389.77 41.741 1388.83 43.1113 1387.82 42.695C1387.57 42.5909 1387.31 42.3828 1387.07 42.5042C1386.99 42.5594 1386.93 42.6333 1386.88 42.7205C1386.83 42.8076 1386.8 42.9057 1386.79 43.0072C1386.54 44.3429 1386.98 45.8636 1386.31 47.02C1385.58 48.2747 1383.89 48.4482 1383.01 49.5814C1382.53 50.1943 1382.34 51.0212 1381.9 51.6688C1381.46 52.3164 1380.53 52.7327 1379.99 52.166C1380.25 51.5855 1380.33 50.9261 1380.2 50.2958C1380.07 49.6654 1379.74 49.1016 1379.28 48.6968C1378.79 48.3472 1378.26 48.0674 1377.71 47.8642C1377.08 47.5796 1376.49 47.2229 1375.94 46.8003C1375.67 46.6188 1375.45 46.3587 1375.3 46.0486C1375.18 45.6587 1375.2 45.2365 1375.34 44.8575C1375.61 44.0224 1376.09 43.2829 1376.71 42.7185C1377.34 42.1542 1378.1 41.7862 1378.9 41.6543C1379.61 41.5502 1380.43 41.5849 1380.89 41.0009C1381.14 40.6944 1381.27 40.2261 1381.63 40.1047C1381.86 40.053 1382.09 40.0834 1382.3 40.1914C1383.18 40.5268 1384.06 40.8621 1384.93 41.1975C1385.23 41.3434 1385.55 41.4013 1385.87 41.3652C1386.03 41.3429 1386.17 41.2558 1386.28 41.1216C1386.38 40.9873 1386.43 40.816 1386.42 40.6424C1386.33 40.1683 1385.66 39.9428 1385.73 39.4629C1385.76 39.3061 1385.83 39.1642 1385.94 39.0581C1386.89 37.9612 1388.05 37.1058 1389.34 36.553C1390.63 36.0003 1392.02 35.7638 1393.4 35.8606C1393.73 36.4562 1393.21 37.1558 1392.77 37.6589C1392.33 38.1677 1391.98 39.0697 1392.51 39.4571C1392.73 39.5794 1392.97 39.6392 1393.21 39.6305C1393.86 39.7249 1394.49 39.9318 1395.07 40.2434C1395.98 40.6713 1396.88 41.1454 1397.75 41.6543C1397.62 41.0343 1397.64 40.3888 1397.81 39.7809C1397.91 39.4825 1398.1 39.2337 1398.36 39.083C1398.62 38.9322 1398.91 38.8904 1399.2 38.9656C1399.72 39.1853 1399.99 39.937 1400.54 40.0064C1401.28 40.0989 1401.58 38.9078 1401.27 38.1677C1400.96 37.4276 1400.34 36.8147 1400.29 35.9994C1400.26 35.4559 1400.45 34.7794 1400.05 34.4498C1399.91 34.3477 1399.74 34.2842 1399.58 34.2648C1396.23 33.5999 1392.89 32.933 1389.54 32.2642C1388.95 32.1428 1388.09 32.2353 1388.06 32.8887C1388.05 33.2587 1388.35 33.623 1388.22 33.9583C1388.07 34.3168 1387.61 34.2879 1387.26 34.4151C1387.01 34.5413 1386.8 34.7545 1386.66 35.0226C1386.53 35.2907 1386.48 35.5991 1386.52 35.9011C1386.61 36.5023 1386.83 37.0735 1387.15 37.5721C1386.49 37.2772 1385.51 37.2252 1384.85 36.9245C1384.76 36.101 1384.57 35.2944 1384.28 34.525C1384.26 34.4025 1384.22 34.2854 1384.16 34.182C1384.1 34.0785 1384.01 33.9912 1383.92 33.9262C1383.82 33.8611 1383.71 33.82 1383.6 33.8055C1383.48 33.7911 1383.37 33.8038 1383.26 33.8427C1382.4 33.9873 1381.54 34.126 1380.68 34.2706C1380.46 34.2817 1380.25 34.369 1380.08 34.5192C1379.75 34.9066 1380.08 35.5253 1380.07 36.0572C1380.04 36.3547 1379.92 36.6342 1379.74 36.857C1379.55 37.0797 1379.31 37.2347 1379.04 37.3004C1378.5 37.4199 1377.94 37.412 1377.4 37.2772C1376.19 37.0749 1374.99 36.8725 1373.78 36.6701C1374.85 36.3009 1375.8 35.6114 1376.52 34.6811C1377 34.0682 1377.25 32.9233 1376.56 32.6343C1376.36 32.5733 1376.14 32.5556 1375.93 32.5822C1374.29 32.5938 1373 31.1078 1371.47 30.4775C1370.99 30.2822 1370.48 30.1804 1369.96 30.1769L1368.25 32.4607Z" fill="#419ADD"/>
<path d="M1507.9 89.3215C1507.71 89.5953 1507.46 89.8148 1507.18 89.961C1506.9 90.1071 1506.58 90.1755 1506.27 90.1599C1504.6 90.0038 1503.9 87.3961 1502.25 87.1012C1502.11 87.0606 1501.95 87.077 1501.81 87.1475C1501.57 87.292 1501.53 87.6505 1501.51 87.9512C1501.44 89.4429 1501.38 90.9925 1501.92 92.3687C1502.7 94.3808 1504.73 96.0692 1504.31 98.2028C1502.02 97.0521 1500.82 94.2594 1500.29 91.5823C1499.74 88.9052 1499.66 86.0951 1498.69 83.5626C1497.95 84.586 1496.41 83.7418 1495.74 82.6664C1495.1 81.6487 1494.7 80.4692 1494.09 79.4342C1493.47 78.405 1492.52 77.4799 1491.39 77.422C1490.21 77.3642 1489.17 78.2489 1488.27 79.0873C1487.48 79.7189 1486.82 80.5175 1486.33 81.4348C1485.69 82.8225 1485.86 84.453 1485.83 85.9968C1485.79 87.6621 1485.47 89.4256 1484.42 90.6514C1483.37 91.8714 1481.44 92.2993 1480.29 91.1949C1479.73 90.5625 1479.33 89.7835 1479.13 88.9342C1477.87 84.9588 1476.83 80.9086 1476 76.8034C1475.81 77.7401 1475.05 78.9485 1474.32 78.3992C1474.16 78.2497 1474.03 78.0644 1473.94 77.8557C1472.59 75.3752 1470.09 73.8834 1467.56 72.9872C1465.04 72.0968 1462.39 71.6805 1459.89 70.6975C1458.49 70.1453 1457.15 69.4217 1455.9 68.5408C1455.59 69.0486 1455.4 69.64 1455.37 70.2526C1455.33 70.8652 1455.45 71.4764 1455.71 72.0216C1455.99 72.5551 1456.43 72.973 1456.95 73.2103C1457.47 73.4477 1458.05 73.4912 1458.6 73.3341C1459.15 73.1376 1459.62 72.7212 1460.17 72.5131C1460.71 72.3107 1461.45 72.409 1461.69 72.9872C1461.93 73.5365 1461.58 74.2015 1461.75 74.7797C1462.01 75.6528 1463.23 75.7221 1463.66 76.5201C1463.78 76.836 1463.81 77.1872 1463.74 77.5222C1463.67 77.8573 1463.5 78.1585 1463.26 78.3819C1462.77 78.8157 1462.23 79.1774 1461.65 79.4574C1459.86 80.5386 1458.59 82.3831 1457.03 83.817C1455.46 85.2568 1453.25 86.3033 1451.39 85.384C1451.83 82.9382 1449.15 81.1457 1448.66 78.7115C1448.49 77.9078 1448.58 77.0578 1448.35 76.2772C1448.02 75.1439 1447.09 74.3691 1446.33 73.5134C1445.42 72.4628 1444.7 71.2234 1444.23 69.8679C1443.76 68.5125 1443.54 67.0685 1443.59 65.6209C1443.63 64.6148 1443.81 63.5913 1443.59 62.6084C1443.38 61.6312 1442.63 60.683 1441.71 60.7234C1439.6 60.8275 1436.93 61.001 1435.82 59.0409C1435.42 58.3412 1435.25 57.3178 1435.83 56.7801C1436.23 56.4043 1436.83 56.4389 1437.35 56.4968C1438.95 56.6644 1440.53 56.8379 1442.12 57.0056C1443.24 57.1212 1444.44 57.2195 1445.4 56.5893C1446.35 55.9591 1446.77 54.2765 1445.88 53.5306C1445.24 52.9871 1444.08 53.016 1443.88 52.1544C1443.73 51.4317 1444.47 50.6164 1444.07 50.0093C1443.78 49.5814 1443.15 49.697 1442.76 50.0208C1442.42 50.4032 1442.05 50.7534 1441.65 51.0674C1440.89 51.4953 1439.99 51.0847 1439.17 50.8072C1438.35 50.5297 1437.25 50.5065 1436.86 51.3334C1436.41 52.2527 1437.25 53.467 1436.81 54.3921C1436.23 55.6121 1434.26 54.9183 1433.44 55.9706C1432.5 57.1733 1434.08 58.9773 1433.76 60.5153C1433.36 60.7331 1432.91 60.8333 1432.46 60.8059C1432.01 60.7785 1431.57 60.6246 1431.19 60.3592C1430.82 60.084 1430.52 59.7042 1430.33 59.2602C1430.14 58.8162 1430.07 58.3248 1430.12 57.8382C1430.19 57.1444 1430.53 56.4332 1430.3 55.7798C1430.06 55.2752 1429.66 54.8798 1429.18 54.6638C1427.64 53.7329 1426.09 52.8059 1424.55 51.8827C1424.12 52.75 1424.66 53.8197 1425.34 54.473C1426.02 55.1206 1426.87 55.6121 1427.32 56.4679C1427.6 57.0609 1427.66 57.7491 1427.49 58.3917C1427.33 59.0343 1426.94 59.5829 1426.41 59.9255C1426.34 59.9755 1426.27 60.0091 1426.19 60.0241C1426.11 60.039 1426.03 60.035 1425.95 60.0123C1425.87 59.9652 1425.81 59.9026 1425.76 59.8281C1425.71 59.7537 1425.67 59.6688 1425.65 59.5786C1424.84 57.3063 1423.61 55.0686 1421.65 53.8833C1419.68 52.6922 1416.87 52.9408 1415.58 54.9356C1415.28 55.4097 1415.07 55.9532 1414.8 56.4563C1413.39 59.1218 1410.36 60.3823 1407.53 60.3014C1407.25 60.3207 1406.97 60.2502 1406.73 60.099C1406.28 59.7579 1406.3 59.0293 1406.37 58.428C1406.47 57.578 1406.56 56.7338 1406.66 55.8839C1406.67 55.3649 1406.85 54.8665 1407.18 54.4904C1407.71 54.0394 1408.46 54.3227 1409.13 54.3111C1409.64 54.2866 1410.13 54.093 1410.53 53.7567C1410.93 53.4203 1411.23 52.9577 1411.38 52.432C1411.51 51.9015 1411.51 51.341 1411.37 50.8111C1411.24 50.2812 1410.97 49.802 1410.6 49.4253C1410.29 49.1131 1409.88 48.7199 1410.04 48.2978C1410.11 48.1815 1410.2 48.082 1410.3 48.0061C1410.4 47.9302 1410.52 47.8798 1410.65 47.8584C1411.84 47.4825 1413.12 47.3842 1414.29 46.9332C1415.47 46.488 1416.62 45.5744 1416.9 44.2504C1416.99 43.8456 1417.02 43.3542 1417.36 43.1518C1417.53 43.078 1417.71 43.0387 1417.89 43.0361C1418.53 42.9365 1419.11 42.5805 1419.52 42.0381C1419.93 41.4956 1420.14 40.806 1420.11 40.1046C1420.67 39.6767 1421.47 39.9948 1422.01 40.4515C1422.56 40.9083 1423.04 41.5097 1423.71 41.7062C1424.95 42.0763 1426.15 40.8794 1427.43 40.8736C1427.98 40.8736 1428.53 41.0818 1429.04 40.8794C1429.56 40.677 1429.87 40.122 1430.26 39.7114C1430.66 39.2951 1431.35 39.0465 1431.72 39.4917C1431.61 38.6533 1431.51 37.8207 1431.4 36.9881C1432.03 37.1596 1432.68 37.1834 1433.32 37.0577C1433.96 36.932 1434.56 36.6599 1435.09 36.2595C1433.75 35.7681 1432.41 35.2766 1431.07 34.7851C1430.93 34.7474 1430.8 34.6718 1430.7 34.5654C1430.4 34.2242 1430.7 33.6923 1430.93 33.3049C1431.5 32.374 1431.6 30.8417 1430.66 30.3792C1430.02 30.0612 1429.29 30.4428 1428.68 30.8128C1427.7 31.4026 1426.72 31.9982 1425.74 32.5879C1425.65 33.195 1426.33 33.542 1426.75 33.9467C1427.01 34.1936 1427.19 34.519 1427.27 34.8801C1427.35 35.2412 1427.34 35.621 1427.22 35.9695C1427.1 36.3181 1426.88 36.6191 1426.6 36.8329C1426.32 37.0467 1425.99 37.1633 1425.64 37.1673C1425.84 37.4409 1425.97 37.7579 1426.04 38.0951C1426.1 38.4322 1426.1 38.781 1426.02 39.1159C1425.37 39.1679 1424.71 39.2199 1424.05 39.272C1423.94 39.2957 1423.83 39.2957 1423.72 39.2719C1423.61 39.2481 1423.5 39.2009 1423.41 39.1332C1423.2 38.9308 1423.23 38.5724 1423.18 38.2717C1423.09 37.9123 1422.9 37.5897 1422.64 37.3455C1422.39 37.1012 1422.07 36.9465 1421.73 36.9013C1421.05 36.8185 1420.36 36.8874 1419.71 37.1037C1419.43 37.2123 1419.12 37.2041 1418.84 37.0806C1418.68 36.967 1418.56 36.8005 1418.5 36.6065C1418.38 36.21 1418.36 35.7877 1418.44 35.3805C1418.52 34.9733 1418.69 34.595 1418.94 34.2821C1419.45 33.6655 1420.02 33.1022 1420.63 32.5995C1422 31.2897 1423.02 29.5872 1423.55 27.6847C1424.63 27.1875 1425.76 26.5168 1426.85 26.0195C1427.72 25.5779 1428.64 25.2424 1429.59 25.0192C1430.48 24.8717 1431.38 24.8252 1432.28 24.8804C1433.5 24.9036 1434.73 24.9267 1435.95 24.9556C1437.05 24.9057 1438.14 25.0763 1439.17 25.4586C1440.18 25.9096 1441.07 26.8868 1441.14 28.0664C1441.16 28.2008 1441.15 28.3388 1441.11 28.4673C1441.06 28.5958 1440.99 28.7106 1440.9 28.8007C1440.76 28.8856 1440.6 28.9256 1440.44 28.9163C1439.42 28.951 1438.99 29.2286 1437.97 29.269C1438.62 30.0149 1439.34 30.8013 1440.28 30.9343C1441.93 31.1655 1443.11 29.3095 1443.87 27.6963C1443.9 28.1069 1444.08 28.4897 1444.36 28.763C1444.64 29.0363 1445.01 29.1785 1445.39 29.1592C1445.8 29.083 1446.19 28.9178 1446.54 28.6735C1449.81 26.7298 1453.48 25.7006 1457.21 25.6784C1457.17 25.3715 1457.24 25.0609 1457.4 24.8066C1457.56 24.5523 1457.81 24.3726 1458.09 24.3022C1458.85 24.1403 1459.53 24.8515 1459.89 25.5916C1460.26 26.3317 1460.49 27.1875 1461.07 27.7426C1461.65 28.2976 1462.77 28.2687 1463 27.4708C1463.23 26.7018 1462.49 26.0426 1461.87 25.5859C1461.26 25.1348 1460.61 24.2964 1461.03 23.6257C1464.16 22.8682 1467.31 22.1166 1470.52 21.9662C1471.07 21.9842 1471.61 21.8819 1472.12 21.6656C1472.37 21.5498 1472.58 21.3471 1472.72 21.0889C1472.85 20.8307 1472.9 20.5314 1472.87 20.2374C1472.17 20.415 1471.43 20.3625 1470.76 20.0866C1470.09 19.8107 1469.5 19.3238 1469.09 18.6878C1472.38 18.3929 1475.83 18.1327 1479 18.9364L1481.77 21.4921C1481.24 22.0877 1480.54 22.6485 1480.92 23.2441C1481.05 23.3809 1481.2 23.4847 1481.37 23.5478C1481.54 23.6109 1481.72 23.6316 1481.9 23.6084C1482.57 23.6199 1483.24 23.6373 1483.9 23.6373C1497.67 37.9428 1506.15 57.2256 1507.73 77.85C1506.61 77.8037 1505.58 79.3418 1505.73 80.6832C1505.9 82.2386 1506.93 83.4875 1507.67 84.8289C1507.79 85.047 1507.9 85.2729 1508 85.5054L1507.9 89.3215Z" fill="#419ADD"/>
</g>
</svg>
