<svg width="80" height="47" viewBox="0 0 80 47" fill="none" xmlns="http://www.w3.org/2000/svg">
<g clip-path="url(#clip0)">
<path d="M40.8022 0C47.7552 0 53.371 5.61584 53.371 12.7025C53.371 19.6554 47.7552 25.2713 40.8022 25.2713C33.7156 25.2713 28.0997 19.6554 28.0997 12.7025C28.0997 5.61584 33.7156 0 40.8022 0Z" fill="#FF6392" fill-opacity="0.487437"/>
<path d="M23.0188 45.729C22.3502 45.729 21.8154 45.0604 21.9491 44.2582C23.0188 34.7647 31.0414 27.4106 40.8023 27.4106C50.4294 27.4106 58.5858 34.7647 59.6555 44.2582C59.6555 45.0604 59.1206 45.729 58.4521 45.729H23.0188Z" fill="#FF6392" fill-opacity="0.487437"/>
<path d="M65.5387 10.8306C71.0208 10.8306 75.4333 15.243 75.4333 20.5914C75.4333 26.0736 71.0208 30.486 65.5387 30.486C60.1903 30.486 55.7778 26.0736 55.7778 20.5914C55.7778 15.243 60.1903 10.8306 65.5387 10.8306Z" fill="#FF6392" fill-opacity="0.487437"/>
<path d="M58.3183 35.2996C58.0509 34.631 58.3183 33.8288 58.9869 33.4276C60.9925 32.4917 63.2656 31.8231 65.5387 31.8231C72.759 31.8231 78.9097 37.1715 79.9794 44.2582C80.1131 44.9267 79.5783 45.729 78.9097 45.729L58.3183 35.2996Z" fill="#FF6392" fill-opacity="0.487437"/>
<path d="M15.9321 10.8306C21.2805 10.8306 25.6929 15.243 25.6929 20.5914C25.6929 26.0736 21.2805 30.486 15.9321 30.486C10.4499 30.486 6.03748 26.0736 6.03748 20.5914C6.03748 15.243 10.4499 10.8306 15.9321 10.8306Z" fill="#FF6392" fill-opacity="0.487437"/>
<path d="M2.6947 45.729C1.89243 45.729 1.35759 44.9267 1.4913 44.2582C2.56099 37.1715 8.71167 31.8231 15.932 31.8231C18.2051 31.8231 20.4782 32.4917 22.6176 33.4276C23.1524 33.8288 23.4198 34.631 23.1524 35.2996C16.1838 38.7595 9.41031 42.1538 2.6947 45.729Z" fill="#FF6392" fill-opacity="0.487437"/>
<path d="M39.3314 1.06967C46.2843 1.06967 51.9002 6.68551 51.9002 13.7722C51.9002 20.7251 46.2843 26.3409 39.3314 26.3409C32.2447 26.3409 26.6289 20.7251 26.6289 13.7722C26.6289 6.68551 32.2447 1.06967 39.3314 1.06967ZM39.3314 3.74388C33.7156 3.74388 29.3031 8.15633 29.3031 13.7722C29.3031 19.2543 33.7156 23.6667 39.3314 23.6667C44.8135 23.6667 49.226 19.2543 49.226 13.7722C49.226 8.15633 44.8135 3.74388 39.3314 3.74388Z" fill="black"/>
<path d="M23.0188 45.729C23.0188 46.3975 22.3502 46.9324 21.548 46.7987C20.8794 46.7987 20.3446 46.1301 20.4783 45.3278C21.548 35.8344 29.5706 28.4803 39.3315 28.4803C48.9586 28.4803 57.115 35.8344 58.1846 45.3278C58.1846 46.1301 57.6498 46.7987 56.9812 46.7987C56.179 46.9324 55.5104 46.3975 55.5104 45.729C54.5745 37.4389 47.6215 31.1545 39.3315 31.1545C31.0414 31.1545 23.9547 37.4389 23.0188 45.729Z" fill="black"/>
<path d="M64.0679 11.9002C69.55 11.9002 73.9625 16.3127 73.9625 21.6611C73.9625 27.1432 69.55 31.5557 64.0679 31.5557C58.7195 31.5557 54.307 27.1432 54.307 21.6611C54.307 16.3127 58.7195 11.9002 64.0679 11.9002ZM64.0679 14.5744C60.1903 14.5744 56.9812 17.7835 56.9812 21.6611C56.9812 25.6724 60.1903 28.8814 64.0679 28.8814C68.0792 28.8814 71.2882 25.6724 71.2882 21.6611C71.2882 17.7835 68.0792 14.5744 64.0679 14.5744Z" fill="black"/>
<path d="M58.7194 36.9041C58.0509 37.3052 57.2486 37.0378 56.8475 36.3692C56.5801 35.7007 56.8475 34.8984 57.516 34.4973C59.5217 33.5613 61.7948 32.8928 64.0678 32.8928C71.2882 32.8928 77.4389 38.2412 78.5086 45.3278C78.6423 45.9964 78.1075 46.7986 77.4389 46.7986C76.6366 46.9324 75.9681 46.3975 75.8344 45.729C75.0321 39.8457 69.9511 35.567 64.0678 35.567C62.1959 35.567 60.3239 36.1018 58.7194 36.9041Z" fill="black"/>
<path d="M14.4612 11.9002C19.8096 11.9002 24.2221 16.3127 24.2221 21.6611C24.2221 27.1432 19.8096 31.5557 14.4612 31.5557C8.9791 31.5557 4.56665 27.1432 4.56665 21.6611C4.56665 16.3127 8.9791 11.9002 14.4612 11.9002ZM14.4612 14.5744C10.4499 14.5744 7.24086 17.7835 7.24086 21.6611C7.24086 25.6724 10.4499 28.8814 14.4612 28.8814C18.3388 28.8814 21.5479 25.6724 21.5479 21.6611C21.5479 17.7835 18.3388 14.5744 14.4612 14.5744Z" fill="black"/>
<path d="M2.69469 45.729C2.56098 46.3975 1.89243 46.9324 1.22387 46.7986C0.421609 46.7986 -0.113234 45.9964 0.0204769 45.3278C1.09016 38.2412 7.24085 32.8928 14.4612 32.8928C16.7343 32.8928 19.0074 33.5613 21.1468 34.4973C21.6816 34.8984 21.949 35.7007 21.6816 36.3692C21.2805 37.0378 20.4782 37.3052 19.8096 36.9041C18.2051 36.1018 16.3332 35.567 14.4612 35.567C8.57796 35.567 3.49695 39.8457 2.69469 45.729Z" fill="black"/>
</g>
<defs>
<clipPath id="clip0">
<rect width="80" height="46.8193" fill="white"/>
</clipPath>
</defs>
</svg>
