<svg width="96" height="118" viewBox="0 0 96 118" fill="none" xmlns="http://www.w3.org/2000/svg">
<path d="M43.9177 62.0546C43.9177 58.1173 40.7259 54.9253 36.7884 54.9253H0.904861V0H36.7886C40.7259 0 43.9179 3.19176 43.9179 7.12932L46.2226 20.0508C44.8285 32.7542 43.9177 41.7725 43.9177 62.0546Z" fill="#FFE0BA"/>
<path d="M11.5986 8.69287H33.224V15.6069H11.5986V8.69287Z" fill="#FFC377"/>
<path d="M43.9177 62.0546C43.9177 58.1173 47.1095 54.9253 51.047 54.9253H86.9308V0H51.047C47.1097 0 43.9177 3.19176 43.9177 7.12932V62.0546Z" fill="#FFC377"/>
<path d="M54.6117 8.69287H76.237V15.6069H54.6117V8.69287Z" fill="#FFA07B"/>
<path d="M11.5986 22.9512H33.224V29.8652H11.5986V22.9512Z" fill="#FFC377"/>
<path d="M54.6117 22.9512H76.237V29.8652H54.6117V22.9512Z" fill="#FFA07B"/>
<path d="M54.6117 37.2097H76.237V44.1238H54.6117V37.2097Z" fill="#FFA07B"/>
<path d="M11.5986 37.2097H33.224V44.1238H11.5986V37.2097Z" fill="#FFC377"/>
<path d="M49.014 82.6831L59.7606 71.9365L95.073 107.249L84.3263 117.995L49.014 82.6831Z" fill="#FB636F"/>
<path d="M43.9177 89.8996C31.0571 89.8996 20.6316 79.4741 20.6316 66.6135C20.6316 53.7529 31.0571 43.3274 43.9177 43.3274L48.5271 66.6135L43.9177 89.8996Z" fill="#D4ECFD"/>
<path d="M43.9177 43.3274C56.7783 43.3274 67.2038 53.7529 67.2038 66.6135C67.2038 79.4741 56.7783 89.8996 43.9177 89.8996V43.3274Z" fill="#ADDBFD"/>
</svg>
