<svg width="75" height="75" viewBox="0 0 75 75" fill="none" xmlns="http://www.w3.org/2000/svg">
<g clip-path="url(#clip0)">
<path d="M74.4142 6.68646C74.0754 6.44316 73.6344 6.39424 73.2505 6.55712L7.75828 32.9868L0 36.2063L23.4427 45.6972H23.4686V45.71L29.7399 67.6011C29.8662 68.0419 30.2165 68.3827 30.6605 68.4971C31.1045 68.6114 31.5758 68.482 31.8992 68.1572L44.959 54.8001L62.583 61.7308C63.3094 62.0277 64.1319 61.9741 64.8136 61.5853C65.4951 61.1966 65.9601 60.5159 66.0743 59.7396L74.9704 8.03111C75.0848 7.51068 74.8629 6.97399 74.4142 6.68646ZM36.4377 51.3349L36.4636 51.2444L36.5024 51.2573L36.4377 51.3349Z" fill="#F3D55B"/>
<path d="M44.9588 54.8002L31.8991 68.1572C32.0513 67.9916 32.1622 67.7922 32.2224 67.5754L36.4377 51.335L36.5023 51.2573L42.1141 53.6106L44.6227 54.671L44.9588 54.8002Z" fill="#F29C1F"/>
<path d="M74.5099 6.7561L36.5024 51.2572L36.4636 51.2443L36.4377 51.3348L32.2224 67.5753C32.1622 67.7921 32.0514 67.9914 31.8991 68.1571C31.5757 68.482 31.1043 68.6113 30.6603 68.497C30.2164 68.3828 29.8661 68.0418 29.7397 67.6011L23.4685 45.71V45.6971H23.4556V45.6842L74.5099 6.7561Z" fill="#F0C419"/>
</g>
<defs>
<clipPath id="clip0">
<rect width="75" height="75" fill="white"/>
</clipPath>
</defs>
</svg>
