<svg width="68" height="65" viewBox="0 0 68 65" fill="none" xmlns="http://www.w3.org/2000/svg">
<path fill-rule="evenodd" clip-rule="evenodd" d="M68 33.4442C68 50.872 54.7937 65 38.5028 65V1.88846C54.7937 1.88846 68 16.0165 68 33.4442Z" fill="#82D881" fill-opacity="0.5118"/>
<path d="M36.7224 0C36.3249 2.07256e-05 35.9436 0.17032 35.6625 0.473439C35.3815 0.776557 35.2235 1.18767 35.2235 1.61634V4.84903C35.2243 5.27716 35.3826 5.68746 35.6636 5.98989C35.9446 6.29232 36.3254 6.46217 36.7224 6.46217C37.1194 6.46217 37.5002 6.29232 37.7812 5.98989C38.0622 5.68746 38.2205 5.27716 38.2213 4.84903V3.28198C44.6457 3.68719 50.7087 6.62191 55.2592 11.5291C59.8098 16.4363 62.5312 22.9744 62.907 29.9023H61.4538C61.0565 29.9027 60.6756 30.0732 60.3948 30.3762C60.114 30.6793 59.9562 31.0902 59.9562 31.5187C59.9562 31.9471 60.114 32.358 60.3948 32.6611C60.6756 32.9642 61.0565 33.1346 61.4538 33.135H62.907C62.5312 40.063 59.8098 46.6011 55.2592 51.5083C50.7087 56.4155 44.6457 59.3502 38.2213 59.7554V58.1884C38.2215 57.9759 38.1829 57.7655 38.1077 57.5692C38.0325 57.3729 37.9221 57.1945 37.7829 57.0442C37.6437 56.8939 37.4784 56.7746 37.2964 56.6933C37.1144 56.6119 36.9194 56.5701 36.7224 56.5701C36.5254 56.5701 36.3303 56.6119 36.1484 56.6933C35.9664 56.7746 35.8011 56.8939 35.6619 57.0442C35.5227 57.1945 35.4123 57.3729 35.3371 57.5692C35.2619 57.7655 35.2233 57.9759 35.2235 58.1884V61.421C35.2235 61.8497 35.3815 62.2608 35.6625 62.5639C35.9436 62.8671 36.3249 63.0374 36.7224 63.0374C52.8387 63.0374 65.9504 48.8981 65.9504 31.5187C65.9504 14.1393 52.8387 0 36.7224 0Z" fill="#222F3E"/>
<path d="M40.2198 31.7881C40.2189 31.4755 40.1792 31.1645 40.1016 30.8633L51.8562 19.5432C52.0302 19.3757 52.137 19.1418 52.1542 18.891C52.1714 18.6401 52.0975 18.3919 51.9483 18.1986C51.7991 18.0053 51.586 17.8821 51.3542 17.8548C51.1223 17.8276 50.8897 17.8985 50.7053 18.0527L38.1712 28.5355C37.5257 28.2592 36.8151 28.2134 36.1437 28.4048C35.4723 28.5962 34.8755 29.0147 34.441 29.5989C34.0065 30.1831 33.7571 30.9021 33.7295 31.6504C33.702 32.3987 33.8977 33.1368 34.2879 33.7563C34.6781 34.3758 35.2422 34.8441 35.8974 35.0923C36.5526 35.3405 37.2644 35.3556 37.9281 35.1354C38.5919 34.9151 39.1726 34.4712 39.5851 33.8687C39.9976 33.2662 40.2201 32.537 40.2198 31.7881L40.2198 31.7881ZM35.4734 31.7881C35.4741 31.4429 35.5777 31.1071 35.7688 30.8302C35.9599 30.5532 36.2284 30.3498 36.5348 30.2499C36.5996 30.2286 36.6653 30.2112 36.7319 30.1979C36.9678 30.1523 37.2105 30.1692 37.439 30.2472C37.6676 30.3252 37.8751 30.462 38.0437 30.6458C38.2123 30.8295 38.3369 31.0547 38.4069 31.3019C38.4768 31.5492 38.49 31.811 38.4452 32.065C38.4301 32.1488 38.4095 32.2313 38.3836 32.3119C38.2694 32.6738 38.0396 32.9801 37.7353 33.1762C37.431 33.3723 37.0719 33.4454 36.7223 33.3824C36.3726 33.3195 36.0551 33.1246 35.8263 32.8326C35.5976 32.5406 35.4725 32.1704 35.4734 31.7881V31.7881Z" fill="#222F3E"/>
<path d="M27.7708 30.1717H1.20743C0.540631 30.1717 0 30.8954 0 31.7881C0 32.6807 0.54063 33.4044 1.20743 33.4044H27.7708C28.4376 33.4044 28.9782 32.6807 28.9782 31.7881C28.9782 30.8954 28.4376 30.1717 27.7708 30.1717Z" fill="#222F3E"/>
<path d="M27.8636 46.3352H7.79978C7.18421 46.3352 6.68512 47.0589 6.68512 47.9515C6.68512 48.8441 7.18421 49.5679 7.79978 49.5679H27.8636C28.4791 49.5679 28.9782 48.8441 28.9782 47.9515C28.9782 47.0589 28.4791 46.3352 27.8636 46.3352Z" fill="#222F3E"/>
<path d="M27.8636 14.0083H7.79978C7.18421 14.0083 6.68512 14.732 6.68512 15.6246C6.68512 16.5173 7.18421 17.241 7.79978 17.241H27.8636C28.4791 17.241 28.9782 16.5173 28.9782 15.6246C28.9782 14.732 28.4791 14.0083 27.8636 14.0083Z" fill="#222F3E"/>
</svg>
