<svg width="150" height="150" viewBox="0 0 150 150" fill="none" xmlns="http://www.w3.org/2000/svg">
<g clip-path="url(#clip0)">
<path d="M74.6635 101.973C78.2226 101.973 81.5689 100.586 84.0855 98.0681C86.602 95.5504 87.9867 92.2041 87.9867 88.6439C87.9867 81.2945 82.0095 75.3149 74.6635 75.3149C74.6624 75.3149 74.6635 75.3149 74.6624 75.3149C71.1033 75.3149 67.757 76.7008 65.2405 79.2197C62.7251 81.7362 61.3392 85.0836 61.3392 88.6439C61.3392 95.9933 67.3164 101.973 74.6635 101.973Z" fill="#FB7B76"/>
<path d="M74.6635 101.973C78.2226 101.973 81.5689 100.586 84.0855 98.0681C86.602 95.5504 87.9867 92.2041 87.9867 88.6439C87.9867 81.2945 82.0095 75.3149 74.6635 75.3149C74.6624 75.3149 74.6635 75.3149 74.6624 75.3149C74.6635 75.3138 74.6635 101.973 74.6635 101.973Z" fill="#DF4D60"/>
<path d="M85.9921 108.867H64.1396C61.7123 108.867 59.745 110.834 59.745 113.262C59.745 115.689 61.7123 117.656 64.1396 117.656H85.9921C88.4193 117.656 90.3866 115.689 90.3866 113.262C90.3866 110.834 88.4193 108.867 85.9921 108.867Z" fill="#4762A6"/>
<path d="M85.9921 108.867H74.6635V117.656H85.9921C88.4193 117.656 90.3866 115.689 90.3866 113.262C90.3866 110.834 88.4193 108.867 85.9921 108.867Z" fill="#293759"/>
<path d="M22.6376 75.8821L10.4599 88.0952L7.50275 85.1369C5.78728 83.4192 3.00522 83.4192 1.28861 85.1347C-0.429153 86.8501 -0.429153 89.6322 1.28632 91.3488L7.35512 97.421C8.17909 98.2462 9.29718 98.7096 10.4633 98.7096H10.4656C11.6318 98.7096 12.751 98.245 13.575 97.4187L28.8609 82.0882C30.5752 80.3693 30.5706 77.5873 28.8517 75.8741C27.1339 74.1598 24.3507 74.1643 22.6376 75.8821Z" fill="#04957C"/>
<path d="M72.4617 50.4169C68.9484 53.8261 64.967 57.6908 62.9471 62.2261C62.3417 63.5845 62.4653 65.1581 63.2767 66.4066C64.0869 67.6552 65.4739 68.4082 66.9617 68.4082H82.235C84.6622 68.4082 86.6295 66.4398 86.6295 64.0137C86.6295 61.5864 84.6622 59.6191 82.235 59.6191H75.6603C76.6205 58.6281 77.6218 57.6553 78.5831 56.7238C82.901 52.533 86.6306 48.9132 86.6306 44.3825C86.6306 37.6797 81.1775 32.2266 74.4759 32.2266C69.5778 32.2266 65.1844 35.1414 63.2824 39.6538C62.3394 41.89 63.3877 44.4672 65.6239 45.4102C67.8612 46.3543 70.4384 45.3049 71.3802 43.0687C71.9067 41.8213 73.1209 41.0156 74.4759 41.0156C76.3023 41.0156 77.7946 42.4793 77.8404 44.2966C77.5028 45.5235 74.4736 48.4634 72.4617 50.4169Z" fill="#4762A6"/>
<path d="M82.2361 59.6171H75.6603C76.6205 58.6272 77.623 57.6544 78.5831 56.7229C82.901 52.5309 86.6306 48.9111 86.6306 44.3804C86.6306 37.736 81.2691 32.3218 74.6452 32.2302V41.0227C76.3939 41.1108 77.7958 42.5356 77.8404 44.2957C77.6138 45.1186 76.1753 46.7127 74.6452 48.2634V68.4061H82.2361C84.6634 68.4061 86.6306 66.4389 86.6306 64.0116C86.6306 61.5855 84.6623 59.6171 82.2361 59.6171Z" fill="#293759"/>
<path d="M7.69204 49.2176L9.55285 47.3556V59.5836H6.48011C4.05282 59.5836 2.08558 61.5509 2.08558 63.9782C2.08558 66.4055 4.05282 68.3727 6.48011 68.3727H21.4124C23.8385 68.3727 25.8069 66.4055 25.8069 63.9782C25.8069 61.5509 23.8385 59.5836 21.4124 59.5836H18.3419V36.7389C18.3419 34.9617 17.2707 33.3583 15.6285 32.6797C13.9863 31.9988 12.0957 32.3764 10.8392 33.633L1.47446 43.0057C-0.241004 44.7223 -0.23986 47.5055 1.4779 49.221C3.19451 50.9353 5.97657 50.9353 7.69204 49.2176Z" fill="#4762A6"/>
<path d="M136.547 68.5061C143.172 68.5061 148.511 63.2212 148.701 56.4738C148.749 54.7503 148.508 50.3741 145.221 46.9935C144.682 46.4385 143.992 45.8479 143.128 45.3089L147.53 39.3786C148.52 38.0454 148.675 36.2669 147.929 34.7838C147.182 33.3006 145.663 32.3645 144.002 32.3645H130.827C128.399 32.3645 126.432 34.3317 126.432 36.759C126.432 39.1863 128.399 41.1536 130.827 41.1536H135.267L132.295 45.1556C131.305 46.4888 131.15 48.2661 131.898 49.7504C132.644 51.2335 134.163 52.1697 135.823 52.1697C137.264 52.1697 138.306 52.4901 138.92 53.1207C139.697 53.9206 139.942 55.2939 139.915 56.2277C139.861 58.1847 138.381 59.7171 136.547 59.7171C135.194 59.7171 133.979 58.9114 133.453 57.6651C132.511 55.4278 129.933 54.3795 127.697 55.3225C125.46 56.2655 124.412 58.8427 125.355 61.0789C127.257 65.5913 131.651 68.5061 136.547 68.5061Z" fill="#293759"/>
<path d="M40.48 89.0332C40.48 91.4594 38.5128 93.4278 36.0855 93.4278C33.6582 93.4278 31.691 91.4594 31.691 89.0332C31.691 86.6059 33.6582 84.6387 36.0855 84.6387C38.5128 84.6387 40.48 86.6059 40.48 89.0332Z" fill="#4762A6"/>
<path d="M56.448 89.0332C56.448 91.4594 54.4796 93.4278 52.0535 93.4278C49.6262 93.4278 47.6589 91.4594 47.6589 89.0332C47.6589 86.6059 49.6262 84.6387 52.0535 84.6387C54.4796 84.6387 56.448 86.6059 56.448 89.0332Z" fill="#4762A6"/>
<path d="M101.858 89.0332C101.858 91.4594 99.8909 93.4278 97.4636 93.4278C95.0375 93.4278 93.0691 91.4594 93.0691 89.0332C93.0691 86.6059 95.0375 84.6387 97.4636 84.6387C99.8909 84.6387 101.858 86.6059 101.858 89.0332Z" fill="#293759"/>
<path d="M117.826 89.0332C117.826 91.4594 115.859 93.4278 113.432 93.4278C111.005 93.4278 109.037 91.4594 109.037 89.0332C109.037 86.6059 111.005 84.6387 113.432 84.6387C115.859 84.6387 117.826 86.6059 117.826 89.0332Z" fill="#293759"/>
<path d="M136.676 101.973C140.236 101.973 143.582 100.586 146.099 98.068C148.614 95.5503 150 92.2029 150 88.6438C150 81.2933 144.023 75.3137 136.676 75.3137C133.117 75.3137 129.77 76.7007 127.254 79.2184C124.737 81.7361 123.351 85.0835 123.351 88.6427C123.351 95.9932 129.329 101.973 136.676 101.973Z" fill="#FB7B76"/>
<path d="M136.676 101.973C140.236 101.973 143.582 100.586 146.099 98.068C148.614 95.5503 150 92.2029 150 88.6438C150 81.2933 144.023 75.3137 136.676 75.3137C136.676 75.3137 136.677 101.973 136.676 101.973Z" fill="#DF4D60"/>
</g>
<defs>
<clipPath id="clip0">
<rect width="150" height="150" fill="white"/>
</clipPath>
</defs>
</svg>
