<svg width="96" height="96" viewBox="0 0 96 96" fill="none" xmlns="http://www.w3.org/2000/svg">
<g clip-path="url(#clip0)">
<path d="M50.3974 17.2184H21.1564C20.3681 17.2184 19.7293 16.5796 19.7293 15.7913C19.7293 15.0031 20.3683 14.3643 21.1564 14.3643H50.3974C51.1856 14.3643 51.8246 15.0031 51.8246 15.7913C51.8246 16.5796 51.1858 17.2184 50.3974 17.2184Z" fill="#108C77"/>
<path d="M22.448 27.6793H7.39667C6.60842 27.6793 5.9696 27.0405 5.9696 26.2523C5.9696 25.464 6.6086 24.8252 7.39667 24.8252H22.448C23.2363 24.8252 23.8751 25.464 23.8751 26.2523C23.8751 27.0405 23.2363 27.6793 22.448 27.6793Z" fill="#108C77"/>
<path d="M21.9321 37.4042H15.9864C15.1982 37.4042 14.5594 36.7654 14.5594 35.9771C14.5594 35.1889 15.1984 34.55 15.9864 34.55H21.9323C22.7205 34.55 23.3593 35.1889 23.3593 35.9771C23.3593 36.7654 22.7203 37.4042 21.9321 37.4042Z" fill="#108C77"/>
<path d="M15.9864 44.4467H1.42706C0.638812 44.4467 0 43.8078 0 43.0196C0 42.2313 0.639 41.5925 1.42706 41.5925H15.9862C16.7745 41.5925 17.4133 42.2313 17.4133 43.0196C17.4133 43.8078 16.7745 44.4467 15.9864 44.4467Z" fill="#108C77"/>
<path d="M52.3003 81.6358H21.1564C20.3681 81.6358 19.7293 80.997 19.7293 80.2086C19.7293 79.4201 20.3683 78.7815 21.1564 78.7815H52.3003C53.0886 78.7815 53.7274 79.4203 53.7274 80.2086C53.7274 80.9968 53.0886 81.6358 52.3003 81.6358Z" fill="#108C77"/>
<path d="M22.448 71.1749H7.39667C6.60842 71.1749 5.9696 70.5361 5.9696 69.7478C5.9696 68.9596 6.6086 68.3206 7.39667 68.3206H22.448C23.2363 68.3206 23.8751 68.9594 23.8751 69.7478C23.8751 70.5362 23.2363 71.1749 22.448 71.1749Z" fill="#108C77"/>
<path d="M21.9321 61.45H15.9864C15.1982 61.45 14.5594 60.8112 14.5594 60.0228C14.5594 59.2343 15.1984 58.5957 15.9864 58.5957H21.9323C22.7205 58.5957 23.3593 59.2345 23.3593 60.0228C23.3593 60.811 22.7203 61.45 21.9321 61.45Z" fill="#108C77"/>
<path d="M15.9864 54.4075H1.42706C0.638812 54.4075 0 53.7687 0 52.9805C0 52.1922 0.639 51.5532 1.42706 51.5532H15.9862C16.7745 51.5532 17.4133 52.192 17.4133 52.9805C17.4133 53.7689 16.7745 54.4075 15.9864 54.4075Z" fill="#108C77"/>
<path d="M60.8021 83.1976C80.2413 83.1976 95.9998 67.4391 95.9998 47.9999C95.9998 28.5608 80.2413 12.8022 60.8021 12.8022C41.363 12.8022 25.6044 28.5608 25.6044 47.9999C25.6044 67.4391 41.363 83.1976 60.8021 83.1976Z" fill="#0CAF93"/>
<path d="M60.8021 12.8022C59.9111 12.8022 59.0282 12.836 58.1539 12.9011C76.356 14.2552 90.7033 29.4517 90.7033 47.9999C90.7033 66.5482 76.356 81.7447 58.1539 83.0988C59.0282 83.1639 59.9111 83.1976 60.8021 83.1976C80.2414 83.1976 96 67.4392 96 47.9999C96 28.5607 80.2414 12.8022 60.8021 12.8022Z" fill="#108C77"/>
<path d="M60.8021 75.0269C75.7287 75.0269 87.8291 62.9265 87.8291 47.9999C87.8291 33.0733 75.7287 20.9729 60.8021 20.9729C45.8755 20.9729 33.7751 33.0733 33.7751 47.9999C33.7751 62.9265 45.8755 75.0269 60.8021 75.0269Z" fill="#F4FBFF"/>
<path d="M60.8021 20.9729C59.9798 20.9729 59.1668 21.0117 58.3631 21.0837C72.1466 22.3169 82.9511 33.8958 82.9511 48.0001C82.9511 62.1044 72.1466 73.6831 58.3631 74.9163C59.1668 74.9881 59.9798 75.0269 60.8021 75.0269C75.7288 75.0269 87.8291 62.9266 87.8291 47.9999C87.8293 33.0734 75.7288 20.9729 60.8021 20.9729Z" fill="#DAF1F4"/>
<path d="M60.8023 30.8418C60.0141 30.8418 59.3751 30.203 59.3751 29.4147V27.2361C59.3751 26.4479 60.0139 25.8091 60.8023 25.8091C61.5907 25.8091 62.2294 26.4479 62.2294 27.2361V29.4145C62.2294 30.2028 61.5906 30.8418 60.8023 30.8418Z" fill="#365E7D"/>
<path d="M73.944 36.2851C73.5789 36.2851 73.2135 36.1458 72.9347 35.8672C72.3774 35.3097 72.3774 34.4062 72.9347 33.8487L74.475 32.3084C75.0324 31.7514 75.936 31.7514 76.4934 32.3084C77.0507 32.8659 77.0507 33.7694 76.4934 34.3269L74.9531 35.8672C74.6745 36.1458 74.3093 36.2851 73.944 36.2851Z" fill="#365E7D"/>
<path d="M81.5659 49.4271H79.3877C78.5994 49.4271 77.9604 48.7883 77.9604 47.9998C77.9604 47.2114 78.5992 46.5728 79.3877 46.5728H81.5659C82.3541 46.5728 82.9931 47.2116 82.9931 47.9998C82.9931 48.7881 82.3541 49.4271 81.5659 49.4271Z" fill="#365E7D"/>
<path d="M75.4843 64.1091C75.1193 64.1091 74.7538 63.9698 74.475 63.6912L72.9347 62.1508C72.3774 61.5934 72.3774 60.6898 72.9347 60.1324C73.4921 59.5753 74.3957 59.5753 74.9531 60.1324L76.4934 61.6727C77.0507 62.2302 77.0507 63.1337 76.4934 63.6912C76.2148 63.9698 75.8496 64.1091 75.4843 64.1091Z" fill="#365E7D"/>
<path d="M60.8023 70.1907C60.0141 70.1907 59.3751 69.5519 59.3751 68.7634V66.5853C59.3751 65.797 60.0139 65.1582 60.8023 65.1582C61.5907 65.1582 62.2294 65.797 62.2294 66.5853V68.7634C62.2294 69.5519 61.5906 70.1907 60.8023 70.1907Z" fill="#365E7D"/>
<path d="M46.1201 64.1091C45.7549 64.1091 45.3896 63.9698 45.111 63.6912C44.5536 63.1337 44.5536 62.2302 45.111 61.6727L46.6513 60.1324C47.2086 59.5753 48.1123 59.5753 48.6696 60.1324C49.227 60.6898 49.227 61.5934 48.6696 62.1508L47.1293 63.6912C46.8506 63.9698 46.4854 64.1091 46.1201 64.1091Z" fill="#365E7D"/>
<path d="M42.2169 49.4271H40.0386C39.2503 49.4271 38.6115 48.7883 38.6115 47.9998C38.6115 47.2114 39.2505 46.5728 40.0386 46.5728H42.2169C43.0052 46.5728 43.644 47.2116 43.644 47.9998C43.644 48.7881 43.005 49.4271 42.2169 49.4271Z" fill="#365E7D"/>
<path d="M47.6605 36.2851C47.2952 36.2851 46.93 36.1458 46.6513 35.8672L45.111 34.3269C44.5536 33.7694 44.5536 32.8659 45.111 32.3084C45.6683 31.7514 46.572 31.7514 47.1293 32.3084L48.6696 33.8487C49.227 34.4062 49.227 35.3097 48.6696 35.8672C48.391 36.1458 48.0257 36.2851 47.6605 36.2851Z" fill="#365E7D"/>
<path d="M67.0494 49.4272H60.8023C60.0141 49.4272 59.3751 48.7884 59.3751 47.9999V35.9769C59.3751 35.1886 60.0139 34.5498 60.8023 34.5498C61.5907 34.5498 62.2294 35.1886 62.2294 35.9769V46.5727H67.0494C67.8377 46.5727 68.4767 47.2115 68.4767 47.9997C68.4767 48.788 67.8377 49.4272 67.0494 49.4272Z" fill="#2B4D66"/>
</g>
<defs>
<clipPath id="clip0">
<rect width="96" height="96" fill="white"/>
</clipPath>
</defs>
</svg>
