<svg width="118" height="118" viewBox="0 0 118 118" fill="none" xmlns="http://www.w3.org/2000/svg">
<g clip-path="url(#clip0)">
<path d="M34.0874 12.7501V18.0162L28.9196 19.2278L23.5657 18.0162V12.7501C23.5657 12.1132 24.082 11.5967 24.7191 11.5967H32.9342C33.5711 11.5967 34.0874 12.113 34.0874 12.7501Z" fill="#683B0D"/>
<path d="M34.0874 12.7508V18.0162L31.5035 19.2278L30.0737 18.0162V12.7508C30.0737 12.1132 29.5572 11.5967 28.9196 11.5967H32.9333C33.5708 11.5967 34.0874 12.1132 34.0874 12.7508Z" fill="#683B0D"/>
<path d="M105.752 12.7501V18.0162L100.372 18.9951L95.2303 18.0162V12.7501C95.2303 12.1132 95.7466 11.5967 96.3837 11.5967H104.599C105.236 11.5967 105.752 12.113 105.752 12.7501Z" fill="#683B0D"/>
<path d="M105.752 12.7508V18.0162L103.145 18.4907L101.692 18.0162V12.7508C101.692 12.1132 101.175 11.5967 100.538 11.5967H104.598C105.235 11.5967 105.752 12.1132 105.752 12.7508Z" fill="#683B0D"/>
<path d="M117.556 23.1363V80.8496C117.556 83.6773 115.263 85.9697 112.436 85.9697H106.971L97.5955 84.4549L88.2198 85.9697H17.7441C14.4401 85.9697 11.762 83.2892 11.762 79.9875V23.9984C11.762 20.6967 14.4401 18.0162 17.7441 18.0162H112.436C115.263 18.0162 117.556 20.3086 117.556 23.1363Z" fill="#04957C"/>
<path d="M117.556 23.1351V80.8507C117.556 83.6778 115.264 85.9697 112.434 85.9697H107.483C110.31 85.9697 112.604 83.6778 112.604 80.8507V23.1351C112.604 20.3081 110.31 18.0162 107.483 18.0162H112.434C115.264 18.0162 117.556 20.3081 117.556 23.1351Z" fill="#006B59"/>
<path d="M106.971 79.4868V85.9697H88.2198V79.4868C88.2198 78.4551 89.056 77.6189 90.0877 77.6189H105.103C106.135 77.6189 106.971 78.4551 106.971 79.4868Z" fill="#53AAEC"/>
<path d="M106.971 79.4873V85.9697H102.241V79.4873C102.241 78.4542 101.403 77.6189 100.372 77.6189H105.103C106.136 77.6189 106.971 78.4542 106.971 79.4873Z" fill="#0473CE"/>
<path d="M83.6453 62.034L78.5376 60.2864L75.9972 54.3859L79.3271 51.0542L82.2355 48.979C82.6369 48.0571 83.6453 62.034 83.6453 62.034Z" fill="#FFCEBF"/>
<path d="M84.6342 49.0065L83.6453 62.0341L80.4493 60.9405L80.0086 58.3973L80.5072 51.823C80.5551 51.1909 79.8862 50.7551 79.3273 51.0543L82.4007 47.9804C83.2591 47.1218 84.7249 47.7942 84.6342 49.0065Z" fill="#FFB09E"/>
<path d="M83.643 62.0318L72.428 75.6946C70.42 78.14 67.7023 79.9014 64.6496 80.7344L46.705 85.6415C45.9963 85.8353 45.5049 86.4792 45.5049 87.214V104.728H8.8512V93.718C8.8512 90.6304 9.20254 87.5637 9.89592 84.5761C10.587 81.5885 11.6177 78.6777 12.9766 75.9042C14.6961 72.3954 18.263 70.1687 22.172 70.1687H51.5777C58.9932 70.1687 66.0084 66.8089 70.6526 61.0315L75.9972 54.3862L80.0086 58.3976L83.643 62.0318Z" fill="#53AAEC"/>
<path d="M83.643 62.0319L72.4279 75.6947C70.4199 78.1401 67.7023 79.9015 64.6495 80.7345L46.705 85.6417C45.9963 85.8355 45.5048 86.4793 45.5048 87.2141V104.728H39.6181V87.2141C39.6181 86.4795 40.1095 85.8355 40.8183 85.6417L58.7628 80.7345C61.8155 79.9015 64.5332 78.1401 66.5412 75.6947L80.0086 58.3975L83.643 62.0319Z" fill="#53AAEC"/>
<path d="M40.3597 51.7117V60.5811C40.3597 65.8775 36.0649 70.1697 30.7685 70.1697C30.5681 70.1697 30.3678 70.1646 30.17 70.1493C25.1509 69.841 21.1798 65.6772 21.1798 60.5811V51.7117H40.3597Z" fill="#FFCEBF"/>
<path d="M68.3326 34.7588H60.9844C60.3892 34.7588 59.9066 34.2763 59.9066 33.6811V29.4152C59.9066 28.82 60.3892 28.3374 60.9844 28.3374H68.3326C68.9278 28.3374 69.4104 28.82 69.4104 29.4152V33.6811C69.4106 34.2763 68.928 34.7588 68.3326 34.7588Z" fill="#53AAEC"/>
<path d="M68.3326 47.7829H60.9844C60.3892 47.7829 59.9066 47.3003 59.9066 46.7051V42.4392C59.9066 41.844 60.3892 41.3615 60.9844 41.3615H68.3326C68.9278 41.3615 69.4104 41.844 69.4104 42.4392V46.7051C69.4106 47.3003 68.928 47.7829 68.3326 47.7829Z" fill="#53AAEC"/>
<path d="M40.3604 51.7125V60.5799C40.3604 65.8779 36.0651 70.1685 30.7694 70.1685C30.567 70.1685 30.3669 70.1639 30.1691 70.1499C29.4943 70.108 28.8382 69.9987 28.21 69.8218C24.1544 68.705 21.1808 64.9938 21.1808 60.5799V51.7125H40.3604Z" fill="#FFCEBF"/>
<path d="M40.3603 51.7125V60.5799C40.3603 65.8779 36.0651 70.1685 30.7694 70.1685C30.567 70.1685 30.3668 70.1639 30.1691 70.1499C29.4943 70.108 28.8382 69.9987 28.2099 69.8218C32.2632 68.7026 35.2414 64.9914 35.2414 60.5799V51.7125H40.3603Z" fill="#FFB09E"/>
<path d="M48.4063 45.5745C48.4063 49.3718 45.3303 52.4478 41.533 52.4478H29.136V61.9596C29.136 66.3293 24.4475 67.737 21.6601 65.9663C20.5362 65.252 19.7219 64.0235 19.6474 62.2668C19.6404 62.1202 19.6381 61.9689 19.6381 61.82V48.7412C19.6381 45.6908 22.1068 43.2198 25.1572 43.2198H29.9527C33.3679 43.2198 34.6439 40.5219 37.4472 39.2876C38.7193 38.7338 40.1589 38.6358 41.533 38.6989C45.3303 38.6989 48.4063 41.7772 48.4063 45.5745Z" fill="#683B0D"/>
<path d="M20.734 45.4376C20.8388 45.2956 20.9506 45.1581 21.0717 45.0277C20.953 45.1581 20.8412 45.2956 20.734 45.4376Z" fill="#683B0D"/>
<path d="M27.477 52.4479H29.136V61.9597C29.136 66.3294 24.4476 67.7371 21.6601 65.9664C22.8956 65.2032 23.7844 63.863 23.7844 61.9597V56.1405C23.7844 54.0999 25.4364 52.4479 27.477 52.4479Z" fill="#683B0D"/>
<path d="M48.4063 45.5745C48.4063 49.3718 45.3303 52.4478 41.533 52.4478H36.0256C39.8043 52.4478 43.0524 49.3578 43.0548 45.5792C43.0571 42.4892 41.0212 39.8739 38.2174 39.006C39.1914 38.7056 40.4697 38.6535 41.533 38.6989C45.3303 38.6989 48.4063 41.7772 48.4063 45.5745Z" fill="#683B0D"/>
<path d="M52.0031 102.984H1.91508C0.951329 102.984 0.169998 103.765 0.169998 104.729C0.169998 105.693 0.951329 106.474 1.91508 106.474H52.0031C52.9668 106.474 53.7482 105.693 53.7482 104.729C53.7482 103.765 52.9668 102.984 52.0031 102.984Z" fill="#53AAEC"/>
<path d="M106.971 33.2929H75.9963C75.0325 33.2929 74.2512 32.5116 74.2512 31.5478C74.2512 30.5841 75.0325 29.8027 75.9963 29.8027H106.971C107.935 29.8027 108.717 30.5841 108.717 31.5478C108.717 32.5116 107.935 33.2929 106.971 33.2929Z" fill="#ADD4F1"/>
<path d="M83.6432 46.3173H75.9963C75.0325 46.3173 74.2512 45.536 74.2512 44.5722C74.2512 43.6085 75.0325 42.8271 75.9963 42.8271H83.6432C84.607 42.8271 85.3883 43.6085 85.3883 44.5722C85.3883 45.536 84.6072 46.3173 83.6432 46.3173Z" fill="#ADD4F1"/>
</g>
<defs>
<clipPath id="clip0">
<rect width="117.386" height="117.386" fill="white" transform="translate(0.169998 0.342529)"/>
</clipPath>
</defs>
</svg>
