<svg width="118" height="118" viewBox="0 0 118 118" fill="none" xmlns="http://www.w3.org/2000/svg">
<path d="M77.67 113.641V14.0674C77.67 11.6599 75.7184 9.7085 73.311 9.7085H12.4349C10.0275 9.7085 8.07608 11.6601 8.07608 14.0674V113.641C8.07608 116.049 10.0277 118 12.4349 118H73.3112C75.7184 118 77.67 116.048 77.67 113.641Z" fill="#FDBD40"/>
<path d="M87.6028 9.70825H73.0143C75.4218 9.70825 77.3734 11.6599 77.3734 14.0671V113.641C77.3734 116.048 75.4218 118 73.0143 118H87.6028C90.0103 118 91.9619 116.048 91.9619 113.641V14.0673C91.9619 11.6599 90.0103 9.70825 87.6028 9.70825Z" fill="#FDBD40"/>
<path d="M15.2006 109.317V18.391C15.2006 17.5304 15.8982 16.833 16.7585 16.833H83.2792C84.1397 16.833 84.8372 17.5306 84.8372 18.391V109.317C84.8372 110.178 84.1395 110.875 83.2792 110.875H16.7585C15.898 110.875 15.2006 110.178 15.2006 109.317Z" fill="#FFF7CC"/>
<path d="M83.2792 16.833H68.6908C69.5514 16.833 70.2488 17.5306 70.2488 18.391V109.317C70.2488 110.178 69.5511 110.875 68.6908 110.875H83.2792C84.1398 110.875 84.8372 110.178 84.8372 109.317V18.391C84.8372 17.5306 84.1398 16.833 83.2792 16.833Z" fill="#FFE6B3"/>
<path d="M59.2789 5.42477V3.13C59.2789 1.40148 57.8776 0 56.1489 0H43.8886C42.1599 0 40.7586 1.40148 40.7586 3.13V5.42477C40.7586 6.13162 40.1854 6.7048 39.4786 6.7048H34.376C32.6786 6.7048 31.3025 8.08093 31.3025 9.77833V16.833H68.735V9.77833C68.735 8.08093 67.3589 6.7048 65.6615 6.7048H60.5589C59.852 6.7048 59.2789 6.13162 59.2789 5.42477Z" fill="#C2D0DA"/>
<path d="M24.2633 42.1279V28.4063C24.2633 26.8861 25.4958 25.6536 27.016 25.6536H40.7376C42.2578 25.6536 43.4904 26.8861 43.4904 28.4063V42.1279C43.4904 43.6481 42.2578 44.8807 40.7376 44.8807H27.016C25.4956 44.8807 24.2633 43.6481 24.2633 42.1279Z" fill="#04957C"/>
<path d="M24.2633 70.7153V56.9937C24.2633 55.4735 25.4958 54.241 27.016 54.241H40.7376C42.2578 54.241 43.4904 55.4735 43.4904 56.9937V70.7153C43.4904 72.2355 42.2578 73.468 40.7376 73.468H27.016C25.4956 73.468 24.2633 72.2355 24.2633 70.7153Z" fill="#04957C"/>
<path d="M24.2633 99.3023V85.5806C24.2633 84.0604 25.4958 82.8279 27.016 82.8279H40.7376C42.2578 82.8279 43.4904 84.0604 43.4904 85.5806V99.3023C43.4904 100.822 42.2578 102.055 40.7376 102.055H27.016C25.4956 102.055 24.2633 100.823 24.2633 99.3023Z" fill="#04957C"/>
<path d="M32.7153 40.181C32.7132 40.181 32.7113 40.181 32.7093 40.181C31.9231 40.1791 31.1776 39.7984 30.7146 39.163L28.6353 36.3075C28.0563 35.5124 28.2315 34.3985 29.0266 33.8196C29.8217 33.2409 30.9356 33.416 31.5143 34.2109L32.7199 35.8668L36.2449 31.0777C36.828 30.2856 37.9425 30.1164 38.7344 30.6993C39.5265 31.2821 39.6959 32.3969 39.1128 33.189L34.7081 39.1731C34.2437 39.8044 33.4989 40.181 32.7153 40.181Z" fill="#F6F9F9"/>
<path d="M32.715 69.3904C32.7127 69.3904 32.7106 69.3904 32.7086 69.3904C31.9224 69.3883 31.1769 69.0078 30.7141 68.3719L28.6353 65.5169C28.0563 64.7218 28.2315 63.6079 29.0266 63.029C29.8217 62.4503 30.9356 62.6254 31.5143 63.4203L32.7199 65.0762L36.2449 60.2871C36.828 59.4952 37.9425 59.3258 38.7344 59.9087C39.5265 60.4915 39.6959 61.6063 39.1128 62.3984L34.7081 68.3825C34.2437 69.0143 33.4989 69.3904 32.715 69.3904Z" fill="#F6F9F9"/>
<path d="M32.715 97.3557C32.7129 97.3557 32.7109 97.3557 32.709 97.3555C31.9231 97.3537 31.1773 96.9732 30.7145 96.338L28.6352 93.482C28.0563 92.6869 28.2317 91.5733 29.0268 90.9943C29.8224 90.4154 30.9358 90.591 31.5145 91.3859L32.7198 93.0416L36.2451 88.2524C36.8282 87.4605 37.9427 87.2911 38.7346 87.874C39.5267 88.4569 39.6961 89.5716 39.1131 90.3638L34.7083 96.3479C34.2435 96.9791 33.4988 97.3557 32.715 97.3557Z" fill="#F6F9F9"/>
<path d="M74.3704 33.3268H52.3572C51.3738 33.3268 50.5766 32.5296 50.5766 31.5462C50.5766 30.5628 51.3738 29.7656 52.3572 29.7656H74.3704C75.3538 29.7656 76.151 30.5628 76.151 31.5462C76.151 32.5296 75.3538 33.3268 74.3704 33.3268Z" fill="#868EAF"/>
<path d="M63.3639 40.768H52.3574C51.374 40.768 50.5768 39.9708 50.5768 38.9874C50.5768 38.004 51.374 37.2068 52.3574 37.2068H63.3639C64.3473 37.2068 65.1445 38.004 65.1445 38.9874C65.1445 39.9708 64.3473 40.768 63.3639 40.768Z" fill="#868EAF"/>
<path d="M67.1272 61.9145H52.3574C51.374 61.9145 50.5768 61.1173 50.5768 60.1339C50.5768 59.1505 51.374 58.3533 52.3574 58.3533H67.1272C68.1106 58.3533 68.9078 59.1505 68.9078 60.1339C68.9078 61.1173 68.1106 61.9145 67.1272 61.9145Z" fill="#868EAF"/>
<path d="M63.3639 69.3556H52.3574C51.374 69.3556 50.5768 68.5584 50.5768 67.575C50.5768 66.5916 51.374 65.7944 52.3574 65.7944H63.3639C64.3473 65.7944 65.1445 66.5916 65.1445 67.575C65.1445 68.5584 64.3473 69.3556 63.3639 69.3556Z" fill="#868EAF"/>
<path d="M102.999 46.4896L101.25 44.1863L94.7085 40.0436L92.1939 39.6475L58.6964 92.5799C57.8882 93.8562 57.2952 95.2568 56.9412 96.7253C61.0168 96.7758 64.716 99.1183 66.5042 102.781C67.6805 101.833 68.693 100.698 69.5012 99.4221L102.999 46.4896Z" fill="#FC8086"/>
<path d="M107.728 30.1895L104.901 28.3995C102.698 27.004 99.78 27.6597 98.3852 29.8636L95.7931 33.9597L96.62 35.6267L104.486 40.6078L106.598 40.8019L109.192 36.7032C110.586 34.5004 109.93 31.5843 107.728 30.1895Z" fill="#8C9BA6"/>
<path d="M92.1976 39.6323L95.7986 33.9448L106.605 40.787L103.004 46.4745L92.1976 39.6323Z" fill="#C9E2E7"/>
<path d="M66.5043 102.781L56.9663 110.468C55.6208 111.552 53.666 110.314 54.0709 108.634L56.9412 96.7256C61.0168 96.7758 64.7163 99.1185 66.5043 102.781Z" fill="#7C8B96"/>
<path d="M64.0025 99.4816L99.1165 44.0313L96.1078 42.126L60.9938 97.5763C62.0954 98.0405 63.1118 98.6842 64.0025 99.4816Z" fill="#FB636F"/>
</svg>
